<svg width="14" height="13" viewBox="0 0 14 13" fill="none" xmlns="http://www.w3.org/2000/svg">
<path d="M13.4618 6.69125C13.424 6.78262 13.3599 6.86072 13.2777 6.91568C13.1955 6.97063 13.0988 6.99998 12.9999 7H10.4999V12C10.4999 12.2652 10.3945 12.5196 10.207 12.7071C10.0195 12.8946 9.76512 13 9.49991 13H4.49991C4.23469 13 3.98034 12.8946 3.7928 12.7071C3.60526 12.5196 3.49991 12.2652 3.49991 12V7H0.999905C0.900958 7.00007 0.804211 6.97079 0.721914 6.91586C0.639617 6.86092 0.57547 6.7828 0.537594 6.69139C0.499718 6.59998 0.489816 6.49939 0.509141 6.40234C0.528466 6.3053 0.57615 6.21617 0.646155 6.14625L6.64616 0.146247C6.69259 0.0997584 6.74774 0.0628788 6.80844 0.0377167C6.86913 0.0125545 6.9342 -0.000396729 6.99991 -0.000396729C7.06561 -0.000396729 7.13068 0.0125545 7.19138 0.0377167C7.25207 0.0628788 7.30722 0.0997584 7.35366 0.146247L13.3537 6.14625C13.4236 6.21621 13.4711 6.30533 13.4904 6.40235C13.5096 6.49936 13.4997 6.59989 13.4618 6.69125Z" fill="currentColor"/>
</svg>
