<svg width="16" height="18" viewBox="0 0 16 18" fill="none" xmlns="http://www.w3.org/2000/svg">
<path d="M2.28571 16.875V15.75H1.14286C0.819047 15.75 0.547809 15.642 0.329143 15.426C0.110476 15.21 0.000761905 14.943 0 14.625V3.375C0 3.05625 0.109714 2.78925 0.329143 2.574C0.548571 2.35875 0.819809 2.25075 1.14286 2.25H2.28571V1.125C2.28571 0.806254 2.39543 0.539254 2.61486 0.324004C2.83429 0.108754 3.10552 0.000753879 3.42857 3.8793e-06C3.75162 -0.00074612 4.02324 0.107254 4.24343 0.324004C4.46362 0.540754 4.57295 0.807754 4.57143 1.125V2.25H5.71428C6.03809 2.25 6.30971 2.358 6.52914 2.574C6.74857 2.79 6.8579 3.057 6.85714 3.375V14.625C6.85714 14.9437 6.74743 15.2111 6.528 15.4271C6.30857 15.6431 6.03733 15.7507 5.71428 15.75H4.57143V16.875C4.57143 17.1937 4.46171 17.4611 4.24228 17.6771C4.02286 17.8931 3.75162 18.0007 3.42857 18C3.10552 17.9992 2.83429 17.8912 2.61486 17.676C2.39543 17.4607 2.28571 17.1937 2.28571 16.875ZM11.4286 16.875V12.375H10.2857C9.9619 12.375 9.69066 12.267 9.472 12.051C9.25333 11.835 9.14362 11.568 9.14285 11.25V5.625C9.14285 5.30625 9.25257 5.03925 9.472 4.824C9.69143 4.60875 9.96266 4.50075 10.2857 4.5H11.4286V1.125C11.4286 0.806254 11.5383 0.539254 11.7577 0.324004C11.9771 0.108754 12.2484 0.000753879 12.5714 3.8793e-06C12.8945 -0.00074612 13.1661 0.107254 13.3863 0.324004C13.6065 0.540754 13.7158 0.807754 13.7143 1.125V4.5H14.8571C15.1809 4.5 15.4526 4.608 15.672 4.824C15.8914 5.04 16.0008 5.307 16 5.625V11.25C16 11.5687 15.8903 11.8361 15.6709 12.0521C15.4514 12.2681 15.1802 12.3757 14.8571 12.375H13.7143V16.875C13.7143 17.1937 13.6046 17.4611 13.3851 17.6771C13.1657 17.8931 12.8945 18.0007 12.5714 18C12.2484 17.9992 11.9771 17.8912 11.7577 17.676C11.5383 17.4607 11.4286 17.1937 11.4286 16.875Z" fill="#EAEAEA"/>
</svg>
