<svg width="24" height="24" viewBox="0 0 24 24" fill="none" xmlns="http://www.w3.org/2000/svg">
<rect width="24" height="24" rx="2" fill="#0148FE"/>
<path d="M9.78039 6.04211C9.91539 5.76961 10.1929 5.59961 10.4954 5.59961H13.5054C13.8079 5.59961 14.0854 5.76961 14.2204 6.04211L14.4004 6.39961H16.8004C17.2429 6.39961 17.6004 6.75711 17.6004 7.19961C17.6004 7.64211 17.2429 7.99961 16.8004 7.99961H7.20039C6.75789 7.99961 6.40039 7.64211 6.40039 7.19961C6.40039 6.75711 6.75789 6.39961 7.20039 6.39961H9.60039L9.78039 6.04211ZM7.20039 8.79961H16.8004V16.7996C16.8004 17.6821 16.0829 18.3996 15.2004 18.3996H8.80039C7.91789 18.3996 7.20039 17.6821 7.20039 16.7996V8.79961ZM9.60039 10.3996C9.38039 10.3996 9.20039 10.5796 9.20039 10.7996V16.3996C9.20039 16.6196 9.38039 16.7996 9.60039 16.7996C9.82039 16.7996 10.0004 16.6196 10.0004 16.3996V10.7996C10.0004 10.5796 9.82039 10.3996 9.60039 10.3996ZM12.0004 10.3996C11.7804 10.3996 11.6004 10.5796 11.6004 10.7996V16.3996C11.6004 16.6196 11.7804 16.7996 12.0004 16.7996C12.2204 16.7996 12.4004 16.6196 12.4004 16.3996V10.7996C12.4004 10.5796 12.2204 10.3996 12.0004 10.3996ZM14.4004 10.3996C14.1804 10.3996 14.0004 10.5796 14.0004 10.7996V16.3996C14.0004 16.6196 14.1804 16.7996 14.4004 16.7996C14.6204 16.7996 14.8004 16.6196 14.8004 16.3996V10.7996C14.8004 10.5796 14.6204 10.3996 14.4004 10.3996Z" fill="#EAEAEA"/>
</svg>
