<svg width="18" height="16" viewBox="0 0 18 16" fill="none" xmlns="http://www.w3.org/2000/svg">
<path d="M3 0C2.44688 0 2 0.446875 2 1V4H4V1C4 0.446875 3.55312 0 3 0ZM9 0C8.44687 0 8 0.446875 8 1V4H10V1C10 0.446875 9.55313 0 9 0ZM1 5C0.446875 5 0 5.44688 0 6C0 6.55312 0.446875 7 1 7V8C1 10.4187 2.71875 12.4375 5 12.9V15C5 15.5531 5.44688 16 6 16C6.55312 16 7 15.5531 7 15V12.9C7.38438 12.8219 7.75313 12.7 8.09688 12.5406C8.03125 12.2031 8 11.8562 8 11.5C8 8.99063 9.68125 6.875 11.9781 6.2125C11.9937 6.14375 12 6.07188 12 6C12 5.44688 11.5531 5 11 5H1ZM13.5 16C14.6935 16 15.8381 15.5259 16.682 14.682C17.5259 13.8381 18 12.6935 18 11.5C18 10.3065 17.5259 9.16193 16.682 8.31802C15.8381 7.47411 14.6935 7 13.5 7C12.3065 7 11.1619 7.47411 10.318 8.31802C9.47411 9.16193 9 10.3065 9 11.5C9 12.6935 9.47411 13.8381 10.318 14.682C11.1619 15.5259 12.3065 16 13.5 16ZM15.3531 10.3531L14.2063 11.5L15.3531 12.6469C15.5469 12.8406 15.5469 13.1594 15.3531 13.3531C15.1594 13.5469 14.8406 13.5469 14.6469 13.3531L13.5 12.2063L12.3531 13.3531C12.1594 13.5469 11.8406 13.5469 11.6469 13.3531C11.4531 13.1594 11.4531 12.8406 11.6469 12.6469L12.7937 11.5L11.6469 10.3531C11.4531 10.1594 11.4531 9.84063 11.6469 9.64688C11.8406 9.45312 12.1594 9.45312 12.3531 9.64688L13.5 10.7937L14.6469 9.64688C14.8406 9.45312 15.1594 9.45312 15.3531 9.64688C15.5469 9.84063 15.5469 10.1594 15.3531 10.3531Z" fill="currentColor"/>
</svg>
