<svg width="14" height="14" viewBox="0 0 14 14" fill="none" xmlns="http://www.w3.org/2000/svg">
<path d="M9.66791 1.08203L8.45791 2.29203L11.7079 5.54203L12.9179 4.33203C13.5429 3.70703 13.5429 2.69453 12.9179 2.06953L11.9329 1.08203C11.3079 0.457031 10.2954 0.457031 9.67041 1.08203H9.66791ZM7.89291 2.85703L2.06541 8.68703C1.80541 8.94703 1.61541 9.26953 1.51041 9.62203L0.625413 12.6295C0.562913 12.842 0.620413 13.0695 0.775413 13.2245C0.930413 13.3795 1.15791 13.437 1.36791 13.377L4.37541 12.492C4.72791 12.387 5.05041 12.197 5.31041 11.937L11.1429 6.10703L7.89291 2.85703Z" fill="currentColor"/>
</svg>
