<svg width="22" height="14" viewBox="0 0 22 14" fill="none" xmlns="http://www.w3.org/2000/svg">
<path d="M21.5004 6.99993V12.9999C21.5004 13.1988 21.4214 13.3896 21.2807 13.5303C21.1401 13.6709 20.9493 13.7499 20.7504 13.7499H14.7504C14.602 13.75 14.4569 13.7061 14.3334 13.6237C14.21 13.5413 14.1138 13.4241 14.057 13.287C14.0001 13.1499 13.9853 12.999 14.0143 12.8534C14.0433 12.7079 14.1148 12.5742 14.2198 12.4693L16.6901 9.99993L11.7504 5.06024L8.53104 8.28055C8.46139 8.35029 8.37867 8.40561 8.28762 8.44335C8.19657 8.48109 8.09898 8.50052 8.00042 8.50052C7.90186 8.50052 7.80426 8.48109 7.71321 8.44335C7.62216 8.40561 7.53945 8.35029 7.46979 8.28055L0.719792 1.53055C0.579062 1.38982 0.5 1.19895 0.5 0.999929C0.5 0.800906 0.579062 0.610034 0.719792 0.469304C0.860523 0.328573 1.05139 0.249512 1.25042 0.249512C1.44944 0.249512 1.64031 0.328573 1.78104 0.469304L8.00042 6.68962L11.2198 3.4693C11.2894 3.39957 11.3722 3.34425 11.4632 3.30651C11.5543 3.26877 11.6519 3.24934 11.7504 3.24934C11.849 3.24934 11.9466 3.26877 12.0376 3.30651C12.1287 3.34425 12.2114 3.39957 12.281 3.4693L17.7504 8.93962L20.2198 6.4693C20.3247 6.3643 20.4584 6.29277 20.6039 6.26378C20.7495 6.23479 20.9004 6.24965 21.0375 6.30646C21.1746 6.36328 21.2918 6.4595 21.3742 6.58294C21.4566 6.70639 21.5005 6.85151 21.5004 6.99993Z" fill="#646466"/>
</svg>
