<svg width="14" height="13" viewBox="0 0 14 13" fill="none" xmlns="http://www.w3.org/2000/svg">
<path d="M13.2381 2.1725L13.2331 2.17813L8.99998 6.69813V10.1663C9.00023 10.3312 8.95967 10.4936 8.88192 10.6391C8.80416 10.7846 8.69164 10.9086 8.55436 11L6.55436 12.3338C6.40364 12.4341 6.22849 12.4917 6.0476 12.5004C5.86672 12.509 5.68688 12.4683 5.5273 12.3827C5.36771 12.2971 5.23437 12.1698 5.1415 12.0143C5.04863 11.8589 4.99971 11.6811 4.99998 11.5V6.69813L0.766858 2.17813L0.761858 2.1725C0.6317 2.02926 0.545906 1.85133 0.514883 1.66029C0.483861 1.46924 0.508943 1.27331 0.587088 1.09624C0.665233 0.919174 0.793081 0.768589 0.955124 0.662754C1.11717 0.556919 1.30644 0.500381 1.49998 0.5H12.5C12.6937 0.500019 12.8832 0.556294 13.0455 0.661988C13.2079 0.767682 13.336 0.918246 13.4144 1.09538C13.4927 1.27252 13.518 1.46861 13.487 1.65982C13.4561 1.85104 13.3702 2.02914 13.24 2.1725H13.2381Z" fill="currentColor"/>
</svg>
