<svg width="14" height="16" viewBox="0 0 14 16" fill="none" xmlns="http://www.w3.org/2000/svg">
<path d="M4.97813 0.168753C5.22188 -0.0593715 5.6 -0.0562465 5.84375 0.171878C6.70625 0.981253 7.51563 1.85313 8.27188 2.79688C8.61563 2.34688 9.00625 1.85625 9.42813 1.45625C9.675 1.225 10.0563 1.225 10.3031 1.45938C11.3844 2.49063 12.3 3.85313 12.9438 5.14688C13.5781 6.42188 14 7.725 14 8.64375C14 12.6313 10.8813 16 7 16C3.075 16 0 12.6281 0 8.64063C0 7.44063 0.55625 5.975 1.41875 4.525C2.29063 3.05313 3.52188 1.51875 4.97813 0.168753ZM7.05312 13C7.84375 13 8.54375 12.7813 9.20312 12.3438C10.5188 11.425 10.8719 9.5875 10.0813 8.14375C9.94063 7.8625 9.58125 7.84375 9.37813 8.08125L8.59062 8.99688C8.38437 9.23438 8.0125 9.22813 7.81875 8.98125C7.30312 8.325 6.38125 7.15313 5.85625 6.4875C5.65937 6.2375 5.28437 6.23438 5.08437 6.48438C4.02812 7.8125 3.49688 8.65 3.49688 9.59063C3.5 11.7313 5.08125 13 7.05312 13Z" fill="#EAEAEA"/>
</svg>
