<svg width="16" height="16" viewBox="0 0 16 16" xmlns="http://www.w3.org/2000/svg">
<path d="M7.5 9H6.5C6.36739 9 6.24021 9.05268 6.14645 9.14645C6.05268 9.24021 6 9.36739 6 9.5V13C6 13.1326 6.05268 13.2598 6.14645 13.3536C6.24021 13.4473 6.36739 13.5 6.5 13.5C6.63261 13.5 6.75979 13.4473 6.85355 13.3536C6.94732 13.2598 7 13.1326 7 13V12.5H7.5C7.96413 12.5 8.40925 12.3156 8.73744 11.9874C9.06563 11.6592 9.25 11.2141 9.25 10.75C9.25 10.2859 9.06563 9.84075 8.73744 9.51256C8.40925 9.18437 7.96413 9 7.5 9ZM7.5 11.5H7V10H7.5C7.69891 10 7.88968 10.079 8.03033 10.2197C8.17098 10.3603 8.25 10.5511 8.25 10.75C8.25 10.9489 8.17098 11.1397 8.03033 11.2803C7.88968 11.421 7.69891 11.5 7.5 11.5ZM13.5 11.5V12.5544C13.5 12.6832 13.4503 12.807 13.3612 12.9C13.1872 13.0874 12.9766 13.2373 12.7425 13.3405C12.5085 13.4436 12.2558 13.4979 12 13.5C10.8969 13.5 10 12.4906 10 11.25C10 10.0094 10.8969 9 12 9C12.3676 9.00116 12.7264 9.11263 13.03 9.32C13.1399 9.39459 13.2157 9.50979 13.2406 9.64024C13.2656 9.7707 13.2377 9.90573 13.1631 10.0156C13.0885 10.1255 12.9733 10.2013 12.8429 10.2263C12.7124 10.2512 12.5774 10.2233 12.4675 10.1488C12.3303 10.0529 12.1673 10.0011 12 10C11.4487 10 11 10.5625 11 11.25C11 11.9375 11.4487 12.5 12 12.5C12.1804 12.4979 12.3555 12.4386 12.5 12.3306V12C12.3674 12 12.2402 11.9473 12.1464 11.8536C12.0527 11.7598 12 11.6326 12 11.5C12 11.3674 12.0527 11.2402 12.1464 11.1464C12.2402 11.0527 12.3674 11 12.5 11H13C13.1326 11 13.2598 11.0527 13.3536 11.1464C13.4473 11.2402 13.5 11.3674 13.5 11.5ZM5 9.5V11.875C5 12.306 4.82879 12.7193 4.52405 13.024C4.2193 13.3288 3.80598 13.5 3.375 13.5C2.94402 13.5 2.5307 13.3288 2.22595 13.024C1.9212 12.7193 1.75 12.306 1.75 11.875C1.75 11.7424 1.80268 11.6152 1.89645 11.5214C1.99021 11.4277 2.11739 11.375 2.25 11.375C2.38261 11.375 2.50979 11.4277 2.60355 11.5214C2.69732 11.6152 2.75 11.7424 2.75 11.875C2.75 12.0408 2.81585 12.1997 2.93306 12.3169C3.05027 12.4342 3.20924 12.5 3.375 12.5C3.54076 12.5 3.69973 12.4342 3.81694 12.3169C3.93415 12.1997 4 12.0408 4 11.875V9.5C4 9.36739 4.05268 9.24021 4.14645 9.14645C4.24021 9.05268 4.36739 9 4.5 9C4.63261 9 4.75979 9.05268 4.85355 9.14645C4.94732 9.24021 5 9.36739 5 9.5ZM13.3538 5.14625L9.85375 1.64625C9.80728 1.59983 9.75212 1.56303 9.69143 1.53793C9.63073 1.51284 9.56568 1.49995 9.5 1.5H3.5C3.23478 1.5 2.98043 1.60536 2.79289 1.79289C2.60536 1.98043 2.5 2.23478 2.5 2.5V7C2.5 7.13261 2.55268 7.25979 2.64645 7.35355C2.74021 7.44732 2.86739 7.5 3 7.5C3.13261 7.5 3.25979 7.44732 3.35355 7.35355C3.44732 7.25979 3.5 7.13261 3.5 7V2.5H9V5.5C9 5.63261 9.05268 5.75979 9.14645 5.85355C9.24021 5.94732 9.36739 6 9.5 6H12.5V7C12.5 7.13261 12.5527 7.25979 12.6464 7.35355C12.7402 7.44732 12.8674 7.5 13 7.5C13.1326 7.5 13.2598 7.44732 13.3536 7.35355C13.4473 7.25979 13.5 7.13261 13.5 7V5.5C13.5001 5.43432 13.4872 5.36927 13.4621 5.30858C13.437 5.24788 13.4002 5.19272 13.3538 5.14625ZM10 5V3.20688L11.7931 5H10Z" />
</svg>
