<svg width="22" height="20" viewBox="0 0 22 20" fill="none" xmlns="http://www.w3.org/2000/svg">
<path d="M21.107 5.10532C20.8635 5.34972 20.574 5.54355 20.2553 5.67564C19.9366 5.80774 19.5949 5.87549 19.2498 5.87501C19.0713 5.8747 18.8932 5.85648 18.7183 5.82063L15.8523 11.1428C16.1966 11.487 16.4384 11.9202 16.5507 12.3939C16.6629 12.8676 16.6413 13.3631 16.4881 13.8252C16.3349 14.2873 16.0562 14.6977 15.6832 15.0105C15.3102 15.3233 14.8575 15.5263 14.3758 15.5966C13.8941 15.667 13.4023 15.602 12.9554 15.409C12.5085 15.2159 12.1241 14.9024 11.8452 14.5034C11.5662 14.1045 11.4037 13.6358 11.3757 13.1498C11.3478 12.6638 11.4556 12.1795 11.687 11.7513L9.24391 9.30813C8.86174 9.51484 8.43433 9.6237 7.99985 9.62501C7.82128 9.62475 7.6432 9.60653 7.46828 9.57063L4.60234 14.8919C4.96943 15.259 5.21941 15.7267 5.32068 16.2359C5.42194 16.7451 5.36994 17.2729 5.17125 17.7525C4.97257 18.2322 4.63611 18.6421 4.20444 18.9306C3.77277 19.219 3.26526 19.3729 2.74609 19.3729C2.22693 19.3729 1.71942 19.219 1.28775 18.9306C0.856078 18.6421 0.519625 18.2322 0.320937 17.7525C0.122249 17.2729 0.0702495 16.7451 0.171514 16.2359C0.272778 15.7267 0.522759 15.259 0.889845 14.8919C1.19758 14.5844 1.57689 14.3583 1.99369 14.2337C2.41049 14.1092 2.8517 14.0902 3.27766 14.1784L6.14359 8.85626C5.65211 8.36332 5.37612 7.69563 5.37612 6.99954C5.37612 6.30345 5.65211 5.63576 6.14359 5.14282C6.58943 4.69672 7.18097 4.42604 7.81001 4.38032C8.43904 4.33459 9.06351 4.51688 9.56917 4.89382C10.0748 5.27076 10.4279 5.81715 10.5637 6.43304C10.6995 7.04894 10.6091 7.69315 10.3089 8.24782L12.752 10.6909C13.2969 10.3979 13.9275 10.306 14.5333 10.4313L17.3992 5.10907C17.1554 4.86531 16.9621 4.57592 16.8301 4.25743C16.6982 3.93893 16.6303 3.59756 16.6303 3.25282C16.6303 2.90808 16.6982 2.56671 16.8301 2.24821C16.9621 1.92972 17.1554 1.64033 17.3992 1.39657C17.8915 0.904261 18.5592 0.627686 19.2555 0.627686C19.9517 0.627686 20.6194 0.904261 21.1117 1.39657C21.604 1.88888 21.8806 2.55659 21.8806 3.25282C21.8806 3.94905 21.604 4.61676 21.1117 5.10907L21.107 5.10532Z" fill="#EAEAEA"/>
</svg>
