<svg width="14" height="14" viewBox="0 0 14 14" fill="none" xmlns="http://www.w3.org/2000/svg">
<path d="M12 0C13.1031 0 14 0.896875 14 2V12C14 13.1031 13.1031 14 12 14H2C0.896875 14 0 13.1031 0 12V2C0 0.896875 0.896875 0 2 0H12ZM5 3.5C4.58437 3.5 4.25 3.83437 4.25 4.25C4.25 4.66563 4.58437 5 5 5H7.94063L3.71875 9.21875C3.425 9.5125 3.425 9.9875 3.71875 10.2781C4.0125 10.5687 4.4875 10.5719 4.77812 10.2781L8.99687 6.05937L9 9.25C9 9.66562 9.33438 10 9.75 10C10.1656 10 10.5 9.66562 10.5 9.25V4.25C10.5 3.83437 10.1656 3.5 9.75 3.5H5Z" fill="currentColor"/>
</svg>
