<svg width="12" height="12" viewBox="0 0 12 12" fill="none" xmlns="http://www.w3.org/2000/svg">
<path d="M10 6.5V11C10 11.2652 9.89464 11.5196 9.70711 11.7071C9.51957 11.8946 9.26522 12 9 12H1C0.734784 12 0.48043 11.8946 0.292893 11.7071C0.105357 11.5196 0 11.2652 0 11V3C0 2.73478 0.105357 2.48043 0.292893 2.29289C0.48043 2.10536 0.734784 2 1 2H5.5C5.63261 2 5.75979 2.05268 5.85355 2.14645C5.94732 2.24022 6 2.36739 6 2.5C6 2.63261 5.94732 2.75979 5.85355 2.85355C5.75979 2.94732 5.63261 3 5.5 3H1V11H9V6.5C9 6.36739 9.05268 6.24021 9.14645 6.14645C9.24021 6.05268 9.36739 6 9.5 6C9.63261 6 9.75979 6.05268 9.85355 6.14645C9.94732 6.24021 10 6.36739 10 6.5ZM12 0.5C12 0.367392 11.9473 0.240215 11.8536 0.146447C11.7598 0.0526787 11.6326 1.549e-07 11.5 1.549e-07H7.5C7.40105 -7.77138e-05 7.30431 0.0292046 7.22201 0.08414C7.13971 0.139075 7.07557 0.217194 7.03769 0.308605C6.99981 0.400017 6.98991 0.500611 7.00924 0.597654C7.02856 0.694696 7.07624 0.783822 7.14625 0.85375L8.79313 2.5L6.14625 5.14625C6.05243 5.24007 5.99972 5.36732 5.99972 5.5C5.99972 5.63268 6.05243 5.75993 6.14625 5.85375C6.24007 5.94757 6.36732 6.00028 6.5 6.00028C6.63268 6.00028 6.75993 5.94757 6.85375 5.85375L9.5 3.20688L11.1462 4.85375C11.2162 4.92376 11.3053 4.97144 11.4023 4.99076C11.4994 5.01009 11.6 5.00019 11.6914 4.96231C11.7828 4.92444 11.8609 4.86029 11.9159 4.77799C11.9708 4.69569 12.0001 4.59895 12 4.5V0.5Z" fill="currentColor"/>
</svg>
