<svg width="18" height="16" viewBox="0 0 18 16" fill="none" xmlns="http://www.w3.org/2000/svg">
<path d="M0.599609 1.9998C0.599609 1.33605 1.13586 0.799805 1.79961 0.799805L16.1996 0.799805C16.8634 0.799805 17.3996 1.33605 17.3996 1.9998C17.3996 2.66355 16.8634 3.1998 16.1996 3.1998L1.79961 3.1998C1.13586 3.1998 0.599609 2.66355 0.599609 1.9998ZM0.599609 7.9998C0.599609 7.33605 1.13586 6.7998 1.79961 6.7998L16.1996 6.7998C16.8634 6.7998 17.3996 7.33605 17.3996 7.9998C17.3996 8.66356 16.8634 9.19981 16.1996 9.19981L1.79961 9.19981C1.13586 9.19981 0.599609 8.66356 0.599609 7.9998ZM17.3996 13.9998C17.3996 14.6636 16.8634 15.1998 16.1996 15.1998L1.79961 15.1998C1.13586 15.1998 0.599609 14.6636 0.599609 13.9998C0.599609 13.3361 1.13586 12.7998 1.79961 12.7998L16.1996 12.7998C16.8634 12.7998 17.3996 13.3361 17.3996 13.9998Z" fill="#EAEAEA"/>
</svg>
