<svg width="14" height="14" viewBox="0 0 14 14" fill="none" xmlns="http://www.w3.org/2000/svg">
<path d="M6.99961 13.3996C8.69699 13.3996 10.3249 12.7253 11.5251 11.5251C12.7253 10.3249 13.3996 8.69699 13.3996 6.99961C13.3996 5.30222 12.7253 3.67436 11.5251 2.47413C10.3249 1.27389 8.69699 0.599609 6.99961 0.599609C5.30222 0.599609 3.67436 1.27389 2.47413 2.47413C1.27389 3.67436 0.599609 5.30222 0.599609 6.99961C0.599609 8.69699 1.27389 10.3249 2.47413 11.5251C3.67436 12.7253 5.30222 13.3996 6.99961 13.3996ZM6.39961 9.19961V7.59961H4.79961C4.46711 7.59961 4.19961 7.33211 4.19961 6.99961C4.19961 6.66711 4.46711 6.39961 4.79961 6.39961H6.39961V4.79961C6.39961 4.46711 6.66711 4.19961 6.99961 4.19961C7.33211 4.19961 7.59961 4.46711 7.59961 4.79961V6.39961H9.19961C9.53211 6.39961 9.79961 6.66711 9.79961 6.99961C9.79961 7.33211 9.53211 7.59961 9.19961 7.59961H7.59961V9.19961C7.59961 9.53211 7.33211 9.79961 6.99961 9.79961C6.66711 9.79961 6.39961 9.53211 6.39961 9.19961Z" fill="currentColor"/>
</svg>
