<svg width="16" height="16" viewBox="0 0 16 16" xmlns="http://www.w3.org/2000/svg">
<path d="M3.75 9H2.75C2.61739 9 2.49021 9.05268 2.39645 9.14645C2.30268 9.24021 2.25 9.36739 2.25 9.5V13C2.25 13.1326 2.30268 13.2598 2.39645 13.3536C2.49021 13.4473 2.61739 13.5 2.75 13.5C2.88261 13.5 3.00979 13.4473 3.10355 13.3536C3.19732 13.2598 3.25 13.1326 3.25 13V12.5H3.75C4.21413 12.5 4.65925 12.3156 4.98744 11.9874C5.31563 11.6592 5.5 11.2141 5.5 10.75C5.5 10.2859 5.31563 9.84075 4.98744 9.51256C4.65925 9.18437 4.21413 9 3.75 9ZM3.75 11.5H3.25V10H3.75C3.94891 10 4.13968 10.079 4.28033 10.2197C4.42098 10.3603 4.5 10.5511 4.5 10.75C4.5 10.9489 4.42098 11.1397 4.28033 11.2803C4.13968 11.421 3.94891 11.5 3.75 11.5ZM14 12.5544C14 12.6832 13.9503 12.807 13.8612 12.9C13.6872 13.0874 13.4766 13.2373 13.2425 13.3405C13.0085 13.4436 12.7558 13.4979 12.5 13.5C11.3969 13.5 10.5 12.4906 10.5 11.25C10.5 10.0094 11.3969 9 12.5 9C12.8675 9.00124 13.2263 9.11247 13.53 9.31938C13.64 9.39397 13.7158 9.50919 13.7409 9.63971C13.7659 9.77022 13.738 9.90533 13.6634 10.0153C13.5888 10.1253 13.4736 10.2011 13.3431 10.2262C13.2126 10.2512 13.0775 10.2233 12.9675 10.1488C12.8303 10.0529 12.6673 10.0011 12.5 10C11.9487 10 11.5 10.5625 11.5 11.25C11.5 11.9375 11.9487 12.5 12.5 12.5C12.6805 12.498 12.8557 12.4384 13 12.33V12C12.8674 12 12.7402 11.9473 12.6464 11.8536C12.5527 11.7598 12.5 11.6326 12.5 11.5C12.5 11.3674 12.5527 11.2402 12.6464 11.1464C12.7402 11.0527 12.8674 11 13 11H13.5C13.6326 11 13.7598 11.0527 13.8536 11.1464C13.9473 11.2402 14 11.3674 14 11.5V12.5544ZM9.75 9.5V13C9.75002 13.106 9.71637 13.2092 9.65391 13.2948C9.59145 13.3804 9.50341 13.4439 9.4025 13.4762C9.35322 13.4921 9.30176 13.5001 9.25 13.5C9.17041 13.5 9.09197 13.481 9.02121 13.4446C8.95044 13.4082 8.88939 13.3554 8.84313 13.2906L7.25 11.0625V13C7.25 13.1326 7.19732 13.2598 7.10355 13.3536C7.00979 13.4473 6.88261 13.5 6.75 13.5C6.61739 13.5 6.49021 13.4473 6.39645 13.3536C6.30268 13.2598 6.25 13.1326 6.25 13V9.5C6.25 9.39406 6.28364 9.29086 6.34608 9.20528C6.40852 9.1197 6.49653 9.05617 6.59741 9.02384C6.69829 8.99151 6.80684 8.99205 6.90739 9.0254C7.00794 9.05875 7.0953 9.12317 7.15688 9.20938L8.75 11.4375V9.5C8.75 9.36739 8.80268 9.24021 8.89645 9.14645C8.99021 9.05268 9.11739 9 9.25 9C9.38261 9 9.50979 9.05268 9.60355 9.14645C9.69732 9.24021 9.75 9.36739 9.75 9.5ZM3 7.5C3.13261 7.5 3.25979 7.44732 3.35355 7.35355C3.44732 7.25979 3.5 7.13261 3.5 7V2.5H9V5.5C9 5.63261 9.05268 5.75979 9.14645 5.85355C9.24021 5.94732 9.36739 6 9.5 6H12.5V7C12.5 7.13261 12.5527 7.25979 12.6464 7.35355C12.7402 7.44732 12.8674 7.5 13 7.5C13.1326 7.5 13.2598 7.44732 13.3536 7.35355C13.4473 7.25979 13.5 7.13261 13.5 7V5.5C13.5001 5.43432 13.4872 5.36927 13.4621 5.30858C13.437 5.24788 13.4002 5.19272 13.3538 5.14625L9.85375 1.64625C9.80728 1.59983 9.75212 1.56303 9.69143 1.53793C9.63073 1.51284 9.56568 1.49995 9.5 1.5H3.5C3.23478 1.5 2.98043 1.60536 2.79289 1.79289C2.60536 1.98043 2.5 2.23478 2.5 2.5V7C2.5 7.13261 2.55268 7.25979 2.64645 7.35355C2.74021 7.44732 2.86739 7.5 3 7.5ZM10 3.20688L11.7931 5H10V3.20688Z" />
</svg>
