<svg width="20" height="19" viewBox="0 0 20 19" fill="none" xmlns="http://www.w3.org/2000/svg">
<path d="M0.625 8.5H19.375C19.4745 8.5 19.5698 8.53951 19.6402 8.60983C19.7105 8.68016 19.75 8.77554 19.75 8.875V12.625C19.75 12.7245 19.7105 12.8198 19.6402 12.8902C19.5698 12.9605 19.4745 13 19.375 13H0.625C0.525544 13 0.430161 12.9605 0.359835 12.8902C0.289509 12.8198 0.25 12.7245 0.25 12.625V8.875C0.25 8.77554 0.289509 8.68016 0.359835 8.60983C0.430161 8.53951 0.525544 8.5 0.625 8.5ZM0.25 16.75C0.25 17.1478 0.408035 17.5294 0.68934 17.8107C0.970644 18.092 1.35218 18.25 1.75 18.25H18.25C18.6478 18.25 19.0294 18.092 19.3107 17.8107C19.592 17.5294 19.75 17.1478 19.75 16.75V14.875C19.75 14.7755 19.7105 14.6802 19.6402 14.6098C19.5698 14.5395 19.4745 14.5 19.375 14.5H0.625C0.525544 14.5 0.430161 14.5395 0.359835 14.6098C0.289509 14.6802 0.25 14.7755 0.25 14.875V16.75ZM19.75 4.75V6.625C19.75 6.72446 19.7105 6.81984 19.6402 6.89017C19.5698 6.96049 19.4745 7 19.375 7H0.625C0.525544 7 0.430161 6.96049 0.359835 6.89017C0.289509 6.81984 0.25 6.72446 0.25 6.625V4.75C0.25 4.35218 0.408035 3.97064 0.68934 3.68934C0.970644 3.40804 1.35218 3.25 1.75 3.25H5.5V2.5C5.5 1.90326 5.73705 1.33097 6.15901 0.90901C6.58097 0.487053 7.15326 0.25 7.75 0.25H12.25C12.8467 0.25 13.419 0.487053 13.841 0.90901C14.2629 1.33097 14.5 1.90326 14.5 2.5V3.25H18.25C18.6478 3.25 19.0294 3.40804 19.3107 3.68934C19.592 3.97064 19.75 4.35218 19.75 4.75ZM13 2.5C13 2.30109 12.921 2.11032 12.7803 1.96967C12.6397 1.82902 12.4489 1.75 12.25 1.75H7.75C7.55109 1.75 7.36032 1.82902 7.21967 1.96967C7.07902 2.11032 7 2.30109 7 2.5V3.25H13V2.5Z" fill="#EAEAEA"/>
</svg>
