<svg width="16" height="16" viewBox="0 0 16 16" fill="none" xmlns="http://www.w3.org/2000/svg">
<path d="M8 16C10.1217 16 12.1566 15.1571 13.6569 13.6569C15.1571 12.1566 16 10.1217 16 8C16 5.87827 15.1571 3.84344 13.6569 2.34315C12.1566 0.842855 10.1217 0 8 0C5.87827 0 3.84344 0.842855 2.34315 2.34315C0.842855 3.84344 0 5.87827 0 8C0 10.1217 0.842855 12.1566 2.34315 13.6569C3.84344 15.1571 5.87827 16 8 16ZM5.30625 5.16563C5.55312 4.46875 6.21563 4 6.95625 4H8.77812C9.86875 4 10.75 4.88438 10.75 5.97188C10.75 6.67813 10.3719 7.33125 9.75937 7.68437L8.75 8.2625C8.74375 8.66875 8.40938 9 8 9C7.58437 9 7.25 8.66562 7.25 8.25V7.82812C7.25 7.55937 7.39375 7.3125 7.62813 7.17812L9.0125 6.38438C9.15938 6.3 9.25 6.14375 9.25 5.975C9.25 5.7125 9.0375 5.50313 8.77812 5.50313H6.95625C6.85 5.50313 6.75625 5.56875 6.72188 5.66875L6.70937 5.70625C6.57188 6.09688 6.14062 6.3 5.75313 6.1625C5.36563 6.025 5.15938 5.59375 5.29688 5.20625L5.30937 5.16875L5.30625 5.16563ZM7 11C7 10.7348 7.10536 10.4804 7.29289 10.2929C7.48043 10.1054 7.73478 10 8 10C8.26522 10 8.51957 10.1054 8.70711 10.2929C8.89464 10.4804 9 10.7348 9 11C9 11.2652 8.89464 11.5196 8.70711 11.7071C8.51957 11.8946 8.26522 12 8 12C7.73478 12 7.48043 11.8946 7.29289 11.7071C7.10536 11.5196 7 11.2652 7 11Z" fill="currentColor"/>
</svg>
