<svg width="12" height="12" viewBox="0 0 12 12" fill="none" xmlns="http://www.w3.org/2000/svg">
<path d="M9.25754 3.60004H8.00004C7.55754 3.60004 7.20004 3.95754 7.20004 4.40004C7.20004 4.84254 7.55754 5.20004 8.00004 5.20004H11.2C11.6425 5.20004 12 4.84254 12 4.40004V1.20004C12 0.757539 11.6425 0.400039 11.2 0.400039C10.7575 0.400039 10.4 0.757539 10.4 1.20004V2.48004L9.96004 2.04004C7.77254 -0.147461 4.22754 -0.147461 2.04004 2.04004C-0.147461 4.22754 -0.147461 7.77254 2.04004 9.96004C4.22754 12.1475 7.77254 12.1475 9.96004 9.96004C10.2725 9.64754 10.2725 9.14004 9.96004 8.82754C9.64754 8.51504 9.14004 8.51504 8.82754 8.82754C7.26504 10.39 4.73254 10.39 3.17004 8.82754C1.60754 7.26504 1.60754 4.73254 3.17004 3.17004C4.73254 1.60754 7.26504 1.60754 8.82754 3.17004L9.25754 3.60004Z" fill="#EAEAEA"/>
</svg>
