<svg width="22" height="14" viewBox="0 0 22 14" fill="none" xmlns="http://www.w3.org/2000/svg">
<path d="M21.5004 1.25V7.25C21.5005 7.39842 21.4566 7.54354 21.3742 7.66699C21.2918 7.79043 21.1746 7.88665 21.0375 7.94347C20.9004 8.00028 20.7495 8.01513 20.6039 7.98615C20.4584 7.95716 20.3247 7.88563 20.2198 7.78063L17.7504 5.31031L12.281 10.7806C12.2114 10.8504 12.1287 10.9057 12.0376 10.9434C11.9466 10.9812 11.849 11.0006 11.7504 11.0006C11.6519 11.0006 11.5543 10.9812 11.4632 10.9434C11.3722 10.9057 11.2894 10.8504 11.2198 10.7806L8.00042 7.56031L1.78104 13.7806C1.64031 13.9214 1.44944 14.0004 1.25042 14.0004C1.05139 14.0004 0.860523 13.9214 0.719792 13.7806C0.579062 13.6399 0.5 13.449 0.5 13.25C0.5 13.051 0.579062 12.8601 0.719792 12.7194L7.46979 5.96938C7.53945 5.89964 7.62216 5.84432 7.71321 5.80658C7.80426 5.76884 7.90186 5.74941 8.00042 5.74941C8.09898 5.74941 8.19657 5.76884 8.28762 5.80658C8.37867 5.84432 8.46139 5.89964 8.53104 5.96938L11.7504 9.18969L16.6901 4.25L14.2198 1.78063C14.1148 1.67573 14.0433 1.54204 14.0143 1.39648C13.9853 1.25092 14.0001 1.10002 14.057 0.962908C14.1138 0.82579 14.21 0.708613 14.3334 0.62621C14.4569 0.543807 14.602 0.499883 14.7504 0.5H20.7504C20.9493 0.5 21.1401 0.579018 21.2807 0.71967C21.4214 0.860323 21.5004 1.05109 21.5004 1.25Z" fill="#646466"/>
</svg>
