<svg width="14" height="13" viewBox="0 0 14 13" fill="none" xmlns="http://www.w3.org/2000/svg">
<path d="M10.9996 5.29961C10.9996 6.44711 10.6271 7.50711 9.99961 8.36711L13.1646 11.5346C13.4771 11.8471 13.4771 12.3546 13.1646 12.6671C12.8521 12.9796 12.3446 12.9796 12.0321 12.6671L8.86711 9.49961C8.00711 10.1296 6.94711 10.4996 5.79961 10.4996C2.92711 10.4996 0.599609 8.17211 0.599609 5.29961C0.599609 2.42711 2.92711 0.0996094 5.79961 0.0996094C8.67211 0.0996094 10.9996 2.42711 10.9996 5.29961ZM3.19961 5.49961V7.09961C3.19961 7.43211 3.46711 7.69961 3.79961 7.69961C4.13211 7.69961 4.39961 7.43211 4.39961 7.09961V5.49961C4.39961 5.16711 4.13211 4.89961 3.79961 4.89961C3.46711 4.89961 3.19961 5.16711 3.19961 5.49961ZM5.19961 3.09961V7.09961C5.19961 7.43211 5.46711 7.69961 5.79961 7.69961C6.13211 7.69961 6.39961 7.43211 6.39961 7.09961V3.09961C6.39961 2.76711 6.13211 2.49961 5.79961 2.49961C5.46711 2.49961 5.19961 2.76711 5.19961 3.09961ZM7.19961 4.69961V7.09961C7.19961 7.43211 7.46711 7.69961 7.79961 7.69961C8.13211 7.69961 8.39961 7.43211 8.39961 7.09961V4.69961C8.39961 4.36711 8.13211 4.09961 7.79961 4.09961C7.46711 4.09961 7.19961 4.36711 7.19961 4.69961Z" fill="#3D73FF"/>
</svg>
