<svg width="24" height="24" viewBox="0 0 24 24" fill="none" xmlns="http://www.w3.org/2000/svg">
<path d="M2.40039 18C2.40039 18.6638 2.93664 19.2 3.60039 19.2H5.65164C6.11289 20.2613 7.17039 21 8.40039 21C9.63039 21 10.6879 20.2613 11.1491 19.2H20.4004C21.0641 19.2 21.6004 18.6638 21.6004 18C21.6004 17.3363 21.0641 16.8 20.4004 16.8H11.1491C10.6879 15.7388 9.63039 15 8.40039 15C7.17039 15 6.11289 15.7388 5.65164 16.8H3.60039C2.93664 16.8 2.40039 17.3363 2.40039 18ZM7.20039 18C7.20039 17.6817 7.32682 17.3765 7.55186 17.1515C7.77691 16.9264 8.08213 16.8 8.40039 16.8C8.71865 16.8 9.02388 16.9264 9.24892 17.1515C9.47396 17.3765 9.60039 17.6817 9.60039 18C9.60039 18.3183 9.47396 18.6235 9.24892 18.8485C9.02388 19.0736 8.71865 19.2 8.40039 19.2C8.08213 19.2 7.77691 19.0736 7.55186 18.8485C7.32682 18.6235 7.20039 18.3183 7.20039 18ZM14.4004 12C14.4004 11.6817 14.5268 11.3765 14.7519 11.1515C14.9769 10.9264 15.2821 10.8 15.6004 10.8C15.9187 10.8 16.2239 10.9264 16.4489 11.1515C16.674 11.3765 16.8004 11.6817 16.8004 12C16.8004 12.3183 16.674 12.6235 16.4489 12.8485C16.2239 13.0736 15.9187 13.2 15.6004 13.2C15.2821 13.2 14.9769 13.0736 14.7519 12.8485C14.5268 12.6235 14.4004 12.3183 14.4004 12ZM15.6004 9C14.3704 9 13.3129 9.73875 12.8516 10.8H3.60039C2.93664 10.8 2.40039 11.3363 2.40039 12C2.40039 12.6638 2.93664 13.2 3.60039 13.2H12.8516C13.3129 14.2613 14.3704 15 15.6004 15C16.8304 15 17.8879 14.2613 18.3491 13.2H20.4004C21.0641 13.2 21.6004 12.6638 21.6004 12C21.6004 11.3363 21.0641 10.8 20.4004 10.8H18.3491C17.8879 9.73875 16.8304 9 15.6004 9ZM9.60039 7.2C9.28213 7.2 8.97691 7.07357 8.75186 6.84853C8.52682 6.62348 8.40039 6.31826 8.40039 6C8.40039 5.68174 8.52682 5.37652 8.75186 5.15147C8.97691 4.92643 9.28213 4.8 9.60039 4.8C9.91865 4.8 10.2239 4.92643 10.4489 5.15147C10.674 5.37652 10.8004 5.68174 10.8004 6C10.8004 6.31826 10.674 6.62348 10.4489 6.84853C10.2239 7.07357 9.91865 7.2 9.60039 7.2ZM12.3491 4.8C11.8879 3.73875 10.8304 3 9.60039 3C8.37039 3 7.31289 3.73875 6.85164 4.8H3.60039C2.93664 4.8 2.40039 5.33625 2.40039 6C2.40039 6.66375 2.93664 7.2 3.60039 7.2H6.85164C7.31289 8.26125 8.37039 9 9.60039 9C10.8304 9 11.8879 8.26125 12.3491 7.2H20.4004C21.0641 7.2 21.6004 6.66375 21.6004 6C21.6004 5.33625 21.0641 4.8 20.4004 4.8H12.3491Z" fill="currentColor"/>
</svg>
