<svg width="10" height="11" viewBox="0 0 10 11" fill="none" xmlns="http://www.w3.org/2000/svg">
<path d="M9.70404 2.20779C10.0945 1.81735 10.0945 1.18327 9.70404 0.792831C9.3136 0.40239 8.67952 0.40239 8.28908 0.792831L5 4.08504L1.70779 0.795955C1.31735 0.405513 0.683273 0.405513 0.292831 0.795955C-0.0976105 1.1864 -0.0976105 1.82047 0.292831 2.21092L3.58504 5.5L0.295955 8.79221C-0.0944869 9.18265 -0.0944869 9.81673 0.295955 10.2072C0.686397 10.5976 1.32047 10.5976 1.71092 10.2072L5 6.91496L8.29221 10.204C8.68265 10.5945 9.31673 10.5945 9.70717 10.204C10.0976 9.8136 10.0976 9.17952 9.70717 8.78908L6.41496 5.5L9.70404 2.20779Z" fill="currentColor"/>
</svg>
