<svg width="18" height="14" viewBox="0 0 18 14" fill="none" xmlns="http://www.w3.org/2000/svg">
<path d="M4.73764 13.675C4.54701 13.8813 4.28139 14 4.00014 14C3.71889 14 3.45326 13.8813 3.26264 13.675L0.512637 10.675C0.140762 10.2688 0.165762 9.63437 0.575137 9.2625C0.984512 8.89062 1.61576 8.91562 1.98764 9.325L3.00014 10.4281V1C3.00014 0.446875 3.44701 0 4.00014 0C4.55326 0 5.00014 0.446875 5.00014 1V10.4281L6.01264 9.32187C6.38451 8.91562 7.01889 8.8875 7.42514 9.25937C7.83139 9.63125 7.85951 10.2656 7.48764 10.6719L4.73764 13.6719V13.675ZM10.0001 14C9.44701 14 9.00014 13.5531 9.00014 13C9.00014 12.4469 9.44701 12 10.0001 12H11.0001C11.5533 12 12.0001 12.4469 12.0001 13C12.0001 13.5531 11.5533 14 11.0001 14H10.0001ZM10.0001 10C9.44701 10 9.00014 9.55313 9.00014 9C9.00014 8.44687 9.44701 8 10.0001 8H13.0001C13.5533 8 14.0001 8.44687 14.0001 9C14.0001 9.55313 13.5533 10 13.0001 10H10.0001ZM10.0001 6C9.44701 6 9.00014 5.55312 9.00014 5C9.00014 4.44688 9.44701 4 10.0001 4H15.0001C15.5533 4 16.0001 4.44688 16.0001 5C16.0001 5.55312 15.5533 6 15.0001 6H10.0001ZM10.0001 2C9.44701 2 9.00014 1.55313 9.00014 1C9.00014 0.446875 9.44701 0 10.0001 0H17.0001C17.5533 0 18.0001 0.446875 18.0001 1C18.0001 1.55313 17.5533 2 17.0001 2H10.0001Z" fill="#EAEAEA"/>
</svg>
