<svg width="20" height="20" viewBox="0 0 20 20" xmlns="http://www.w3.org/2000/svg">
<path d="M6.40039 0.400391C5.51164 0.400391 4.73539 0.884141 4.32289 1.60039H2.20039C1.20664 1.60039 0.400391 2.40664 0.400391 3.40039V15.4004C0.400391 16.3941 1.20664 17.2004 2.20039 17.2004H7.60039V7.00039C7.60039 5.34289 8.94289 4.00039 10.6004 4.00039H12.4004V3.40039C12.4004 2.40664 11.5941 1.60039 10.6004 1.60039H8.47789C8.06539 0.884141 7.28914 0.400391 6.40039 0.400391ZM10.6004 5.20039C9.60664 5.20039 8.80039 6.00664 8.80039 7.00039V17.2004V17.8004C8.80039 18.7941 9.60664 19.6004 10.6004 19.6004H17.8004C18.7941 19.6004 19.6004 18.7941 19.6004 17.8004V9.54664C19.6004 9.07039 19.4091 8.61289 19.0716 8.27539L16.5254 5.72914C16.1879 5.39164 15.7304 5.20039 15.2541 5.20039H12.4004H10.6004ZM6.40039 1.90039C6.63909 1.90039 6.868 1.99521 7.03679 2.16399C7.20557 2.33278 7.30039 2.5617 7.30039 2.80039C7.30039 3.03909 7.20557 3.268 7.03679 3.43679C6.868 3.60557 6.63909 3.70039 6.40039 3.70039C6.1617 3.70039 5.93278 3.60557 5.76399 3.43679C5.59521 3.268 5.50039 3.03909 5.50039 2.80039C5.50039 2.5617 5.59521 2.33278 5.76399 2.16399C5.93278 1.99521 6.1617 1.90039 6.40039 1.90039Z" />
</svg>
