<svg width="16" height="17" viewBox="0 0 16 17" fill="none" xmlns="http://www.w3.org/2000/svg">
<path d="M8.56539 2.33496C8.25289 2.02246 7.74539 2.02246 7.43289 2.33496L4.23289 5.53496C3.92039 5.84746 3.92039 6.35496 4.23289 6.66746C4.54539 6.97996 5.05289 6.97996 5.36539 6.66746L7.20039 4.83246V10.1C7.20039 10.5425 7.55789 10.9 8.00039 10.9C8.44289 10.9 8.80039 10.5425 8.80039 10.1V4.83246L10.6354 6.66746C10.9479 6.97996 11.4554 6.97996 11.7679 6.66746C12.0804 6.35496 12.0804 5.84746 11.7679 5.53496L8.56789 2.33496H8.56539ZM4.00039 10.9C4.00039 10.4575 3.64289 10.1 3.20039 10.1C2.75789 10.1 2.40039 10.4575 2.40039 10.9V12.5C2.40039 13.825 3.47539 14.9 4.80039 14.9H11.2004C12.5254 14.9 13.6004 13.825 13.6004 12.5V10.9C13.6004 10.4575 13.2429 10.1 12.8004 10.1C12.3579 10.1 12.0004 10.4575 12.0004 10.9V12.5C12.0004 12.9425 11.6429 13.3 11.2004 13.3H4.80039C4.35789 13.3 4.00039 12.9425 4.00039 12.5V10.9Z" fill="#3D73FF"/>
</svg>
