<svg width="16" height="12" viewBox="0 0 16 12" fill="none" xmlns="http://www.w3.org/2000/svg">
<path d="M15.4692 8.89974L13.6248 1.62537C13.5763 1.43599 13.4735 1.26488 13.3292 1.133C13.1849 1.00112 13.0053 0.914191 12.8123 0.882866L10.5585 0.512866C10.3101 0.472905 10.0556 0.526781 9.84471 0.664015C9.63378 0.801249 9.48143 1.01203 9.41729 1.25537L9.40416 1.30849C9.39566 1.34224 9.39431 1.3774 9.40018 1.4117C9.40605 1.44601 9.41902 1.47871 9.43826 1.50772C9.4575 1.53672 9.48258 1.56139 9.5119 1.58014C9.54122 1.59889 9.57414 1.61132 9.60854 1.61662C10.1257 1.69252 10.6359 1.80998 11.1342 1.96787C11.2587 2.00545 11.3643 2.08901 11.4296 2.20159C11.4948 2.31418 11.5148 2.44735 11.4854 2.57412C11.4685 2.64017 11.4383 2.70208 11.3967 2.75604C11.355 2.81 11.3027 2.85486 11.2431 2.88788C11.1834 2.92089 11.1177 2.94136 11.0498 2.94802C10.982 2.95468 10.9135 2.9474 10.8485 2.92662C8.99968 2.35961 7.02364 2.35743 5.17354 2.92037C5.04833 2.96246 4.91172 2.95472 4.79208 2.89874C4.67243 2.84276 4.57895 2.74284 4.53104 2.61974C4.50827 2.55657 4.49845 2.48947 4.50218 2.42243C4.5059 2.35538 4.52309 2.28978 4.55273 2.22953C4.58236 2.16927 4.62382 2.1156 4.67464 2.07172C4.72547 2.02784 4.78461 1.99465 4.84854 1.97412C5.35304 1.81342 5.86973 1.69386 6.39354 1.61662C6.42794 1.61132 6.46085 1.59889 6.49017 1.58014C6.51949 1.56139 6.54458 1.53672 6.56382 1.50772C6.58305 1.47871 6.59602 1.44601 6.6019 1.4117C6.60777 1.3774 6.60641 1.34224 6.59791 1.30849L6.58479 1.25537C6.52063 1.01182 6.36806 0.800907 6.15684 0.663748C5.94561 0.526589 5.69087 0.473021 5.44229 0.513491L3.18729 0.883491C2.99439 0.91477 2.81481 1.0016 2.6705 1.13337C2.52619 1.26513 2.42343 1.43611 2.37479 1.62537L0.530412 8.89974C0.472582 9.1284 0.497751 9.37015 0.601439 9.58199C0.705128 9.79383 0.88061 9.96202 1.09666 10.0566L5.28416 11.9135C5.41008 11.9695 5.54611 11.9991 5.68389 12.0006C5.82168 12.0021 5.95831 11.9753 6.08539 11.9221C6.21248 11.8688 6.32732 11.7901 6.42288 11.6908C6.51843 11.5915 6.59267 11.4738 6.64104 11.3447L6.85916 10.7541C6.87216 10.7187 6.87699 10.6809 6.87329 10.6434C6.8696 10.6059 6.85747 10.5697 6.83781 10.5375C6.81815 10.5054 6.79148 10.4781 6.75979 10.4577C6.72809 10.4373 6.6922 10.4243 6.65479 10.4197C6.04762 10.3462 5.4486 10.2165 4.86541 10.0322C4.74136 9.99454 4.63621 9.91122 4.57114 9.79907C4.50608 9.68692 4.48594 9.55427 4.51479 9.42787C4.53151 9.36162 4.56162 9.29951 4.60328 9.24536C4.64493 9.19121 4.69724 9.14618 4.75698 9.11303C4.81672 9.07988 4.88262 9.05932 4.9506 9.05263C5.01859 9.04594 5.08723 9.05325 5.15229 9.07411C7.00808 9.64244 8.99149 9.64244 10.8473 9.07411C10.9123 9.05334 10.9808 9.04608 11.0487 9.05278C11.1166 9.05949 11.1824 9.08001 11.242 9.11308C11.3017 9.14616 11.3539 9.1911 11.3956 9.24512C11.4372 9.29915 11.4674 9.36113 11.4842 9.42724C11.5133 9.55375 11.4934 9.68661 11.4283 9.79894C11.3632 9.91127 11.2578 9.99466 11.1335 10.0322C10.5506 10.2166 9.95176 10.3463 9.34479 10.4197C9.30738 10.4243 9.27148 10.4373 9.23979 10.4577C9.20809 10.4781 9.18142 10.5054 9.16177 10.5375C9.14211 10.5697 9.12998 10.6059 9.12628 10.6434C9.12258 10.6809 9.12741 10.7187 9.14041 10.7541L9.35854 11.3447C9.40698 11.4737 9.48126 11.5914 9.57683 11.6907C9.6724 11.7899 9.78723 11.8685 9.91429 11.9218C10.0413 11.9751 10.1779 12.0018 10.3157 12.0004C10.4535 11.9989 10.5895 11.9694 10.7154 11.9135L14.9029 10.0566C15.119 9.96202 15.2944 9.79383 15.3981 9.58199C15.5018 9.37015 15.527 9.1284 15.4692 8.89974ZM5.74979 7.50037C5.60145 7.50037 5.45645 7.45638 5.33311 7.37397C5.20977 7.29156 5.11364 7.17442 5.05688 7.03738C5.00011 6.90033 4.98526 6.74953 5.0142 6.60405C5.04314 6.45856 5.11457 6.32493 5.21946 6.22004C5.32435 6.11515 5.45798 6.04372 5.60347 6.01478C5.74896 5.98584 5.89976 6.00069 6.0368 6.05746C6.17384 6.11422 6.29098 6.21035 6.37339 6.33369C6.4558 6.45703 6.49979 6.60203 6.49979 6.75037C6.49979 6.94928 6.42077 7.14004 6.28012 7.2807C6.13947 7.42135 5.9487 7.50037 5.74979 7.50037ZM10.2498 7.50037C10.1015 7.50037 9.95645 7.45638 9.83311 7.37397C9.70977 7.29156 9.61364 7.17442 9.55688 7.03738C9.50011 6.90033 9.48526 6.74953 9.5142 6.60405C9.54314 6.45856 9.61457 6.32493 9.71946 6.22004C9.82435 6.11515 9.95798 6.04372 10.1035 6.01478C10.249 5.98584 10.3998 6.00069 10.5368 6.05746C10.6738 6.11422 10.791 6.21035 10.8734 6.33369C10.9558 6.45703 10.9998 6.60203 10.9998 6.75037C10.9998 6.94928 10.9208 7.14004 10.7801 7.2807C10.6395 7.42135 10.4487 7.50037 10.2498 7.50037Z"  fill="currentColor"/>
</svg>
