<svg width="14" height="14" viewBox="0 0 14 14" fill="none" xmlns="http://www.w3.org/2000/svg">
<path d="M13.5 5.50001V6.00001C13.4989 6.84601 13.1918 7.66306 12.6354 8.30029C12.0789 8.93752 11.3107 9.35189 10.4725 9.46688C10.8146 9.90467 11.0003 10.4444 11 11V13.5C11 13.6326 10.9473 13.7598 10.8536 13.8536C10.7598 13.9473 10.6326 14 10.5 14H6.5C6.36739 14 6.24021 13.9473 6.14645 13.8536C6.05268 13.7598 6 13.6326 6 13.5V12.5H4.5C3.83696 12.5 3.20107 12.2366 2.73223 11.7678C2.26339 11.2989 2 10.663 2 10C2 9.60218 1.84196 9.22065 1.56066 8.93935C1.27936 8.65804 0.897825 8.50001 0.5 8.50001C0.367392 8.50001 0.240215 8.44733 0.146447 8.35356C0.0526784 8.25979 0 8.13262 0 8.00001C0 7.8674 0.0526784 7.74022 0.146447 7.64645C0.240215 7.55269 0.367392 7.50001 0.5 7.50001C0.828305 7.50001 1.15339 7.56467 1.45671 7.69031C1.76002 7.81595 2.03562 8.00009 2.26777 8.23224C2.49991 8.46439 2.68406 8.73999 2.8097 9.0433C2.93534 9.34661 3 9.6717 3 10C3 10.3978 3.15804 10.7794 3.43934 11.0607C3.72064 11.342 4.10218 11.5 4.5 11.5H6V11C5.99968 10.4444 6.18538 9.90467 6.5275 9.46688C5.68935 9.35189 4.92111 8.93752 4.36464 8.30029C3.80817 7.66306 3.50105 6.84601 3.5 6.00001V5.50001C3.50623 4.87862 3.6717 4.26921 3.98062 3.73001C3.8278 3.23701 3.77877 2.71768 3.83664 2.20479C3.89452 1.6919 4.05803 1.19656 4.31687 0.750008C4.36077 0.673982 4.4239 0.610853 4.49994 0.566967C4.57597 0.523082 4.66221 0.499988 4.75 0.500008C5.33238 0.498789 5.90698 0.633798 6.42788 0.894248C6.94878 1.1547 7.40155 1.53337 7.75 2.00001H9.25C9.59845 1.53337 10.0512 1.1547 10.5721 0.894248C11.093 0.633798 11.6676 0.498789 12.25 0.500008C12.3378 0.499988 12.424 0.523082 12.5001 0.566967C12.5761 0.610853 12.6392 0.673982 12.6831 0.750008C12.942 1.19655 13.1055 1.69192 13.1633 2.20483C13.221 2.71775 13.1718 3.23707 13.0188 3.73001C13.3283 4.269 13.494 4.87851 13.5 5.50001Z"  fill="currentColor"/>
</svg>
