<svg width="15" height="13" viewBox="0 0 15 13" fill="none" xmlns="http://www.w3.org/2000/svg">
<path d="M14.3054 0.63676C14.2279 0.569865 14.1337 0.525376 14.0328 0.508085C13.9319 0.490794 13.8282 0.501357 13.7329 0.538635L1.06665 5.49551C0.887143 5.56531 0.735167 5.69154 0.633605 5.85519C0.532043 6.01884 0.486392 6.21105 0.503524 6.40289C0.520656 6.59473 0.599645 6.77582 0.728598 6.91888C0.857551 7.06194 1.02949 7.15925 1.21853 7.19614L4.5004 7.84051V11.4999C4.49976 11.6992 4.55899 11.8941 4.67043 12.0594C4.78187 12.2247 4.94037 12.3526 5.1254 12.4268C5.31015 12.5022 5.51332 12.5203 5.70849 12.4787C5.90367 12.4372 6.08182 12.3378 6.21978 12.1936L7.80228 10.5524L10.3129 12.7499C10.494 12.9106 10.7277 12.9995 10.9698 12.9999C11.0759 12.9998 11.1813 12.9831 11.2823 12.9505C11.4472 12.8982 11.5956 12.8035 11.7126 12.676C11.8296 12.5485 11.9112 12.3925 11.9492 12.2236L14.486 1.18739C14.5087 1.08785 14.5039 0.984023 14.4721 0.887023C14.4403 0.790023 14.3826 0.703511 14.3054 0.63676ZM10.971 11.9999L5.80353 7.46864L13.241 2.13801L10.971 11.9999Z" fill="currentColor"/>
</svg>
