<svg width="12" height="12" viewBox="0 0 12 12" fill="none" xmlns="http://www.w3.org/2000/svg">
<path d="M11.4377 11.7406C11.3947 11.819 11.3314 11.8845 11.2544 11.9301C11.1775 11.9757 11.0897 11.9999 11.0002 12H8.00024C7.91609 12 7.83331 11.9787 7.75956 11.9382C7.68582 11.8976 7.62349 11.8392 7.57837 11.7681L5.04774 7.79125L1.37024 11.8363C1.28059 11.9326 1.1566 11.9896 1.02515 11.9951C0.893692 12.0006 0.765369 11.9541 0.668001 11.8656C0.570632 11.7771 0.512065 11.6538 0.504997 11.5224C0.497929 11.391 0.54293 11.2622 0.630243 11.1637L4.49087 6.91375L0.578368 0.76875C0.530182 0.693152 0.503207 0.605989 0.500269 0.516388C0.49733 0.426787 0.518536 0.338044 0.561666 0.259451C0.604797 0.180859 0.668264 0.115308 0.745423 0.0696624C0.822582 0.0240171 0.910594 -4.35397e-05 1.00024 5.91468e-08H4.00024C4.08439 2.60814e-05 4.16718 0.0212907 4.24092 0.0618237C4.31467 0.102357 4.37699 0.160847 4.42212 0.231875L6.95274 4.20875L10.6302 0.16375C10.7199 0.0674492 10.8439 0.0103647 10.9753 0.00487238C11.1068 -0.0006199 11.2351 0.0459229 11.3325 0.13441C11.4299 0.222897 11.4884 0.346196 11.4955 0.477576C11.5026 0.608956 11.4576 0.737827 11.3702 0.83625L7.50962 5.08313L11.4221 11.2319C11.47 11.3075 11.4968 11.3946 11.4995 11.4841C11.5023 11.5736 11.4809 11.6622 11.4377 11.7406Z"  fill="currentColor"/>
</svg>
