<svg width="16" height="16" viewBox="0 0 16 16" fill="none" xmlns="http://www.w3.org/2000/svg">
<rect width="16" height="16" fill="#0D0B0D"/>
<path fill-rule="evenodd" clip-rule="evenodd" d="M8.00023 11.2621C10.4487 11.2621 12.5732 9.6693 13.631 8.70968C14.0572 8.32304 14.0572 7.67694 13.631 7.2903C12.5732 6.33069 10.4487 4.73785 8.00023 4.73785C5.55174 4.73785 3.42721 6.33069 2.36944 7.29031C1.94326 7.67694 1.94326 8.32304 2.36944 8.70968C3.42721 9.6693 5.55174 11.2621 8.00023 11.2621ZM8.00023 10.2759C9.23695 10.2759 10.2395 9.25695 10.2395 7.99998C10.2395 6.74303 9.23695 5.72408 8.00023 5.72408C6.76353 5.72408 5.76099 6.74303 5.76099 7.99998C5.76099 9.25695 6.76353 10.2759 8.00023 10.2759Z" fill="#E9E9E9"/>
</svg>
