<svg width="135" height="72" viewBox="0 0 135 72" fill="none" xmlns="http://www.w3.org/2000/svg">
<path fill-rule="evenodd" clip-rule="evenodd" d="M67.3368 71.405C94.8821 71.405 118.783 53.9722 130.683 43.4697C135.477 39.2381 135.477 32.1669 130.683 27.9353C118.783 17.4328 94.8821 0 67.3368 0C39.7913 0 15.8903 17.4328 3.99044 27.9354C-0.80411 32.1669 -0.804104 39.2381 3.99045 43.4697C15.8903 53.9722 39.7913 71.405 67.3368 71.405ZM67.3368 60.6112C81.2499 60.6112 92.5284 49.4593 92.5284 35.7023C92.5284 21.9457 81.2499 10.7937 67.3368 10.7937C53.4239 10.7937 42.1453 21.9457 42.1453 35.7023C42.1453 49.4593 53.4239 60.6112 67.3368 60.6112Z" fill="#E9E9E9"/>
</svg>
