<svg width="24" height="16" viewBox="0 0 24 16" fill="none" xmlns="http://www.w3.org/2000/svg">
<path d="M21.75 0.5H2.25C1.85218 0.5 1.47064 0.658035 1.18934 0.93934C0.908035 1.22064 0.75 1.60218 0.75 2V14C0.75 14.3978 0.908035 14.7794 1.18934 15.0607C1.47064 15.342 1.85218 15.5 2.25 15.5H21.75C22.1478 15.5 22.5294 15.342 22.8107 15.0607C23.092 14.7794 23.25 14.3978 23.25 14V2C23.25 1.60218 23.092 1.22064 22.8107 0.93934C22.5294 0.658035 22.1478 0.5 21.75 0.5ZM12 10.25C12 10.4489 11.921 10.6397 11.7803 10.7803C11.6397 10.921 11.4489 11 11.25 11C11.0511 11 10.8603 10.921 10.7197 10.7803C10.579 10.6397 10.5 10.4489 10.5 10.25V7.56031L8.78063 9.28063C8.71097 9.35036 8.62825 9.40568 8.53721 9.44342C8.44616 9.48116 8.34856 9.50059 8.25 9.50059C8.15144 9.50059 8.05384 9.48116 7.96279 9.44342C7.87175 9.40568 7.78903 9.35036 7.71937 9.28063L6 7.56031V10.25C6 10.4489 5.92098 10.6397 5.78033 10.7803C5.63968 10.921 5.44891 11 5.25 11C5.05109 11 4.86032 10.921 4.71967 10.7803C4.57902 10.6397 4.5 10.4489 4.5 10.25V5.75C4.49988 5.60158 4.54381 5.45646 4.62621 5.33301C4.70861 5.20957 4.82579 5.11335 4.96291 5.05653C5.10002 4.99972 5.25092 4.98487 5.39648 5.01385C5.54204 5.04284 5.67573 5.11437 5.78062 5.21937L8.25 7.68969L10.7194 5.21937C10.8243 5.11437 10.958 5.04284 11.1035 5.01385C11.2491 4.98487 11.4 4.99972 11.5371 5.05653C11.6742 5.11335 11.7914 5.20957 11.8738 5.33301C11.9562 5.45646 12.0001 5.60158 12 5.75V10.25ZM19.2806 8.53063L17.0306 10.7806C16.961 10.8504 16.8783 10.9057 16.7872 10.9434C16.6962 10.9812 16.5986 11.0006 16.5 11.0006C16.4014 11.0006 16.3038 10.9812 16.2128 10.9434C16.1217 10.9057 16.039 10.8504 15.9694 10.7806L13.7194 8.53063C13.5786 8.38989 13.4996 8.19902 13.4996 8C13.4996 7.80098 13.5786 7.61011 13.7194 7.46937C13.8601 7.32864 14.051 7.24958 14.25 7.24958C14.449 7.24958 14.6399 7.32864 14.7806 7.46937L15.75 8.43969V5.75C15.75 5.55109 15.829 5.36032 15.9697 5.21967C16.1103 5.07902 16.3011 5 16.5 5C16.6989 5 16.8897 5.07902 17.0303 5.21967C17.171 5.36032 17.25 5.55109 17.25 5.75V8.43969L18.2194 7.46937C18.2891 7.39969 18.3718 7.34442 18.4628 7.3067C18.5539 7.26899 18.6515 7.24958 18.75 7.24958C18.8485 7.24958 18.9461 7.26899 19.0372 7.3067C19.1282 7.34442 19.2109 7.39969 19.2806 7.46937C19.3503 7.53906 19.4056 7.62178 19.4433 7.71283C19.481 7.80387 19.5004 7.90145 19.5004 8C19.5004 8.09855 19.481 8.19613 19.4433 8.28717C19.4056 8.37822 19.3503 8.46094 19.2806 8.53063Z" fill="#8A8B8C"/>
</svg>
