<svg width="24" height="24" viewBox="0 0 24 24" fill="none" xmlns="http://www.w3.org/2000/svg">
<rect width="24" height="24" rx="2" fill="#2D374B"/>
<path d="M4.62891 8.47144V15.5274C4.62891 15.981 4.86651 16.3914 5.26251 16.6218L11.3753 20.1498C11.7641 20.373 12.2465 20.373 12.6353 20.1498L18.7481 16.6218C19.1369 16.3986 19.3817 15.981 19.3817 15.5274V8.47144C19.3817 8.01784 19.1441 7.60744 18.7481 7.37704L12.6353 3.84904C12.2465 3.62584 11.7641 3.62584 11.3753 3.84904L5.26251 7.37704C4.87371 7.60024 4.63611 8.01784 4.63611 8.47144H4.62891Z" fill="#213147"/>
<path d="M13.3308 13.3667L12.4596 15.7571C12.438 15.8219 12.438 15.8939 12.4596 15.9659L13.9572 20.0771L15.6924 19.0763L13.6116 13.3667C13.5612 13.2371 13.3812 13.2371 13.3308 13.3667Z" fill="#12AAFF"/>
<path d="M15.0842 9.34915C15.0338 9.21955 14.8538 9.21955 14.8034 9.34915L13.9322 11.7396C13.9106 11.8044 13.9106 11.8764 13.9322 11.9484L16.3874 18.6804L18.1226 17.6796L15.0842 9.35635V9.34915Z" fill="#12AAFF"/>
<path d="M12.001 4.116C12.0442 4.116 12.0874 4.1304 12.1234 4.152L18.733 7.968C18.8122 8.0112 18.8554 8.0976 18.8554 8.184V15.816C18.8554 15.9024 18.805 15.9888 18.733 16.032L12.1234 19.848C12.0874 19.8696 12.0442 19.884 12.001 19.884C11.9578 19.884 11.9146 19.8696 11.8786 19.848L5.26904 16.032C5.18984 15.9888 5.14664 15.9024 5.14664 15.816V8.1768C5.14664 8.0904 5.19704 8.004 5.26904 7.9608L11.8786 4.1448C11.9146 4.1232 11.9578 4.1088 12.001 4.1088V4.116ZM12.001 3C11.7634 3 11.533 3.0576 11.317 3.18L4.70744 6.996C4.28264 7.2408 4.02344 7.6872 4.02344 8.1768V15.8088C4.02344 16.2984 4.28264 16.7448 4.70744 16.9896L11.317 20.8056C11.5258 20.928 11.7634 20.9856 12.001 20.9856C12.2386 20.9856 12.469 20.928 12.685 20.8056L19.2946 16.9896C19.7194 16.7448 19.9786 16.2984 19.9786 15.8088V8.1768C19.9786 7.6872 19.7194 7.2408 19.2946 6.996L12.6778 3.18C12.469 3.0576 12.2314 3 11.9938 3H12.001Z" fill="#9DCCED"/>
<path d="M7.625 18.688L8.237 17.0176L9.461 18.0328L8.3162 19.084L7.625 18.688Z" fill="#213147"/>
<path d="M11.4379 7.63611H9.76032C9.63792 7.63611 9.52272 7.71531 9.47952 7.83051L5.88672 17.6801L7.62192 18.6809L11.5819 7.83051C11.6179 7.72971 11.5459 7.62891 11.4451 7.62891L11.4379 7.63611Z" fill="white"/>
<path d="M14.3749 7.63611H12.6973C12.5749 7.63611 12.4597 7.71531 12.4165 7.83051L8.3125 19.0769L10.0477 20.0777L14.5117 7.83051C14.5477 7.72971 14.4757 7.62891 14.3749 7.62891V7.63611Z" fill="white"/>
</svg>
