<svg width="24" height="24" viewBox="0 0 24 24" fill="none" xmlns="http://www.w3.org/2000/svg">
<rect width="24" height="24" rx="2" fill="#1A373D"/>
<path d="M20.3963 14.0433L12.271 20.0512C12.1633 20.1301 12.0054 20.1373 11.8977 20.0584L3.64324 14.2228C3.48532 14.1079 3.44944 13.8783 3.57864 13.7275L11.6968 3.99439C11.8116 3.85083 12.0269 3.85083 12.149 3.99439L20.4393 13.6701C20.5327 13.7849 20.5183 13.9572 20.3963 14.0433Z" fill="#FFF4FC"/>
<path d="M19.9566 13.8433L12.2333 19.5497L12.1902 13.7357L12.1328 4.60547L19.7772 13.628L19.9566 13.8433Z" fill="url(#paint0_linear_1335_9178)"/>
<path d="M3.95703 13.9654L11.8813 19.5497L11.7019 4.60547L3.95703 13.9654Z" fill="url(#paint1_linear_1335_9178)"/>
<path d="M11.8167 13.748L4.01445 13.8988L3.95703 13.9634L11.8813 19.5477L11.8167 13.748Z" fill="url(#paint2_linear_1335_9178)"/>
<path d="M12.1914 13.7346L19.7784 13.627L19.9578 13.8423L12.2345 19.5487L12.1914 13.7346Z" fill="url(#paint3_linear_1335_9178)"/>
<path d="M12.1912 13.662L19.7781 13.5543M11.8179 13.6763L4.01562 13.8271M11.782 11.1282C10.1024 9.84336 9.39182 9.64238 9.12624 9.85771C8.3941 10.4678 11.1073 14.4372 10.0235 15.4349C9.70764 15.722 9.05446 15.7866 7.79834 15.9086C7.41074 15.9445 7.08773 15.9589 6.87958 15.9589M14.7537 13.6261L12.1768 11.3722M10.4757 6.01758C10.4541 6.36929 10.4685 7.06554 10.8274 7.83357C11.1145 8.45086 11.5093 8.85282 11.7605 9.07533M17.9191 15.277C17.9837 15.1837 18.7876 13.9993 18.2923 12.8868C17.9262 12.0613 17.029 11.6809 16.8926 11.6235C16.7132 11.5445 16.706 11.566 15.8662 11.2933C15.3566 11.121 15.0982 11.0421 14.8757 10.9559C14.5311 10.8267 13.8636 10.5683 13.1028 10.0802C12.8515 9.92232 12.5285 9.69262 12.1625 9.39116" stroke="#98C9C0" stroke-width="0.143556" stroke-miterlimit="10"/>
<defs>
<linearGradient id="paint0_linear_1335_9178" x1="12.1316" y1="12.0779" x2="19.9584" y2="12.0779" gradientUnits="userSpaceOnUse">
<stop stop-color="#3B8270"/>
<stop offset="1" stop-color="#305C6E"/>
</linearGradient>
<linearGradient id="paint1_linear_1335_9178" x1="3.96007" y1="12.0779" x2="11.8831" y2="12.0779" gradientUnits="userSpaceOnUse">
<stop stop-color="#4E7F98"/>
<stop offset="1" stop-color="#3BC0B5"/>
</linearGradient>
<linearGradient id="paint2_linear_1335_9178" x1="3.96007" y1="16.6472" x2="11.8831" y2="16.6472" gradientUnits="userSpaceOnUse">
<stop stop-color="#30435C"/>
<stop offset="1" stop-color="#299AA9"/>
</linearGradient>
<linearGradient id="paint3_linear_1335_9178" x1="12.1931" y1="16.5903" x2="19.9596" y2="16.5903" gradientUnits="userSpaceOnUse">
<stop stop-color="#2E2C29"/>
<stop offset="1" stop-color="#323232"/>
</linearGradient>
</defs>
</svg>
