<svg width="24" height="24" viewBox="0 0 24 24" fill="none" xmlns="http://www.w3.org/2000/svg">
<g clip-path="url(#clip0_1335_2137)">
<rect width="24" height="24" rx="2" fill="#E84142"/>
<path d="M19.3926 4.10156H4.57422V17.5696H19.3926V4.10156Z" fill="white"/>
<path fill-rule="evenodd" clip-rule="evenodd" d="M23.984 11.984C23.984 18.6027 18.6151 23.9681 11.992 23.9681C5.36901 23.9681 0 18.6027 0 11.984C0 5.36544 5.36901 0 11.992 0C18.6151 0 23.984 5.36544 23.984 11.984ZM8.59382 16.7531H6.26651C5.77747 16.7531 5.5359 16.7531 5.38861 16.6589C5.22953 16.5559 5.13231 16.3851 5.12053 16.1966C5.11168 16.023 5.23248 15.811 5.47404 15.387L11.2205 5.26492C11.465 4.83509 11.5887 4.62018 11.7448 4.54069C11.9128 4.45532 12.1131 4.45532 12.281 4.54069C12.4372 4.62018 12.5609 4.83509 12.8054 5.26492L13.9867 7.32573L13.9928 7.33624C14.2569 7.79737 14.3908 8.03121 14.4493 8.27663C14.5141 8.54454 14.5141 8.82716 14.4493 9.09507C14.3903 9.34237 14.2578 9.5779 13.9897 10.046L10.9712 15.3782L10.9634 15.3919C10.6976 15.8568 10.5629 16.0924 10.3761 16.2702C10.1729 16.4646 9.92835 16.6058 9.66026 16.6854C9.41574 16.7531 9.14178 16.7531 8.59382 16.7531ZM14.4711 16.7531H17.8058C18.2978 16.7531 18.5453 16.7531 18.6927 16.6561C18.8517 16.553 18.9519 16.3792 18.9608 16.1909C18.9693 16.0229 18.8511 15.8191 18.6196 15.4198C18.6116 15.4062 18.6036 15.3924 18.5954 15.3783L16.925 12.5226L16.906 12.4905C16.6713 12.0938 16.5528 11.8935 16.4006 11.816C16.2328 11.7307 16.0353 11.7307 15.8674 11.816C15.7143 11.8955 15.5905 12.1046 15.346 12.5255L13.6815 15.3812L13.6758 15.3911C13.4322 15.8114 13.3104 16.0214 13.3192 16.1938C13.331 16.3822 13.4282 16.5559 13.5873 16.6589C13.7316 16.7531 13.9791 16.7531 14.4711 16.7531Z" fill="#E84142"/>
</g>
<defs>
<clipPath id="clip0_1335_2137">
<rect width="24" height="24" rx="2" fill="white"/>
</clipPath>
</defs>
</svg>
