<svg width="24" height="24" viewBox="0 0 24 24" fill="none" xmlns="http://www.w3.org/2000/svg">
<g clip-path="url(#clip0_1335_2227)">
<rect width="24" height="24" rx="2" fill="#F0B90B"/>
<path fill-rule="evenodd" clip-rule="evenodd" d="M12 0C18.6279 0 24 5.37212 24 12C24 18.6279 18.6279 24 12 24C5.37212 24 0 18.6279 0 12C0 5.37212 5.37212 0 12 0Z" fill="#F0B90B"/>
<path d="M6.59558 11.9995L6.60424 15.1726L9.30039 16.7591V18.6168L5.02635 16.1101V11.0716L6.59558 11.9995ZM6.59558 8.82644V10.6755L5.02539 9.74663V7.8976L6.59558 6.96875L8.17347 7.8976L6.59558 8.82644ZM10.4264 7.8976L11.9965 6.96875L13.5744 7.8976L11.9965 8.82644L10.4264 7.8976Z" fill="white"/>
<path d="M7.73047 14.5149V12.6572L9.30066 13.5861V15.4351L7.73047 14.5149ZM10.4266 17.4245L11.9968 18.3534L13.5747 17.4245V19.2736L11.9968 20.2024L10.4266 19.2736V17.4245ZM15.8266 7.8976L17.3968 6.96875L18.9747 7.8976V9.74663L17.3968 10.6755V8.82644L15.8266 7.8976ZM17.3968 15.1726L17.4055 11.9995L18.9757 11.0707V16.1091L14.7016 18.6159V16.7582L17.3968 15.1726Z" fill="white"/>
<path d="M16.2694 14.5159L14.6992 15.4361V13.587L16.2694 12.6582V14.5159Z" fill="white"/>
<path d="M16.2709 9.48438L16.2795 11.3421L13.5757 12.9286V16.1094L12.0055 17.0296L10.4353 16.1094V12.9286L7.73143 11.3421V9.48438L9.30835 8.55553L11.9959 10.1498L14.6997 8.55553L16.2776 9.48438H16.2709ZM7.73047 6.31226L11.9968 3.79688L16.2709 6.31226L14.7007 7.24111L11.9968 5.64688L9.30066 7.24111L7.73047 6.31226Z" fill="white"/>
</g>
<defs>
<clipPath id="clip0_1335_2227">
<rect width="24" height="24" rx="2" fill="white"/>
</clipPath>
</defs>
</svg>
