<svg width="24" height="24" viewBox="0 0 24 24" fill="none" xmlns="http://www.w3.org/2000/svg">
<g clip-path="url(#clip0_1335_7508)">
<rect width="24" height="24" rx="2" fill="#1969FF"/>
<path d="M12 24C18.6274 24 24 18.6274 24 12C24 5.37258 18.6274 0 12 0C5.37258 0 0 5.37258 0 12C0 18.6274 5.37258 24 12 24Z" fill="#1969FF"/>
<path d="M11.2734 3.81621C11.6766 3.60293 12.293 3.60293 12.6961 3.81621L16.8211 5.99121C17.0648 6.12012 17.1984 6.30996 17.2219 6.50918H17.2266V17.4404C17.2219 17.6561 17.0859 17.8693 16.8211 18.01L12.6961 20.185C12.293 20.3982 11.6766 20.3982 11.2734 20.185L7.14844 18.01C6.88594 17.8717 6.75938 17.6561 6.75234 17.4404C6.75234 17.4193 6.75234 17.4006 6.75234 17.3865V6.58418C6.75234 6.57012 6.75234 6.55371 6.75234 6.53965V6.51152H6.75469C6.77344 6.3123 6.9 6.1248 7.14844 5.99355L11.2734 3.81621ZM16.5703 12.5865L12.6937 14.6373C12.2906 14.8506 11.6766 14.8506 11.2711 14.6373L7.40391 12.5912V17.4076L11.2711 19.442C11.5008 19.5639 11.7375 19.6834 11.9695 19.6881H11.9836C12.2156 19.6881 12.4383 19.5709 12.6656 19.4607L16.5703 17.3889V12.5865ZM6.10312 17.2037C6.10312 17.6232 6.15234 17.8975 6.24609 18.092C6.32578 18.2537 6.44531 18.3756 6.66328 18.5256L6.675 18.535C6.72187 18.5678 6.77578 18.6006 6.83906 18.6404L6.91406 18.6873L7.14609 18.8279L6.81562 19.3834L6.55547 19.2264L6.51094 19.1982C6.43594 19.1514 6.37266 19.1115 6.31641 19.0717C5.69531 18.6498 5.46563 18.1904 5.46094 17.2318V17.2037H6.10312ZM11.6719 9.68027C11.6414 9.68965 11.6133 9.70371 11.5875 9.71543L7.46953 11.8975C7.46484 11.8998 7.46016 11.9021 7.45781 11.9045L7.45312 11.9068L7.46016 11.9115L7.46953 11.9162L11.5875 14.0982C11.6133 14.1123 11.6414 14.124 11.6719 14.1334V9.68027ZM12.3281 9.68027V14.1334C12.3586 14.124 12.3867 14.11 12.4125 14.0982L16.5305 11.9162C16.5352 11.9139 16.5398 11.9115 16.5422 11.9092L16.5445 11.9068L16.5375 11.9021L16.5281 11.8975L12.4102 9.71543C12.3867 9.70371 12.3586 9.68965 12.3281 9.68027ZM16.5703 7.28965L12.8672 9.23496L16.5703 11.1803V7.28965ZM7.40625 7.28965V11.1803L11.1094 9.23496L7.40625 7.28965ZM12.4078 4.39746C12.1945 4.28496 11.8055 4.28496 11.5922 4.39746L7.46953 6.57715C7.46484 6.57949 7.46016 6.58184 7.45781 6.58418L7.45312 6.58652L7.46016 6.59121L7.46953 6.5959L11.5922 8.77559C11.8055 8.88809 12.1945 8.88809 12.4078 8.77559L16.5305 6.5959C16.5352 6.59355 16.5398 6.59121 16.5422 6.58887L16.5445 6.58652L16.5375 6.58184L16.5281 6.57715L12.4078 4.39746ZM17.1844 4.61777L17.4445 4.7748L17.4891 4.80293C17.5641 4.8498 17.6273 4.88965 17.6836 4.92949C18.3047 5.35137 18.5344 5.81074 18.5391 6.76934V6.79746H17.8969C17.8969 6.37793 17.8477 6.10371 17.7539 5.90918C17.6742 5.74746 17.5547 5.62559 17.3367 5.47559L17.325 5.46621C17.2781 5.4334 17.2242 5.40059 17.1609 5.36074L17.0859 5.31387L16.8539 5.17324L17.1844 4.61777Z" fill="white"/>
</g>
<defs>
<clipPath id="clip0_1335_7508">
<rect width="24" height="24" rx="2" fill="white"/>
</clipPath>
</defs>
</svg>
