<svg width="24" height="24" viewBox="0 0 24 24" fill="none" xmlns="http://www.w3.org/2000/svg">
<rect width="24" height="24" rx="2" fill="#BFF007"/>
<path d="M12.127 8.45195C12.127 7.88945 12.5864 7.43477 13.1489 7.43477H14.9817V4.95508H13.1489C11.2082 4.95508 9.63324 6.5207 9.63324 8.45195C9.63324 8.95352 9.74105 9.43633 9.93324 9.86758C8.42386 10.5004 7.42543 11.8504 7.19105 13.5566C6.91918 15.427 7.67387 17.4473 9.31449 18.427C10.7817 19.3457 13.0692 19.2848 14.3067 18.0098V18.8535H16.8567V9.46914H13.1489C12.5864 9.46914 12.127 9.01445 12.127 8.45195ZM14.3676 11.9488V14.302C14.3629 15.6051 13.3036 16.6598 12.0004 16.6551C10.6973 16.6598 9.63793 15.6051 9.63324 14.302C9.63793 12.9988 10.6973 11.9441 12.0004 11.9488H14.3676Z" fill="#040404"/>
</svg>
