<svg width="24" height="24" viewBox="0 0 24 24" fill="none" xmlns="http://www.w3.org/2000/svg">
<g clip-path="url(#clip0_1335_4265)">
<rect width="24" height="24" rx="2" fill="#FF0420"/>
<path d="M12 24C18.6274 24 24 18.6274 24 12C24 5.37258 18.6274 0 12 0C5.37258 0 0 5.37258 0 12C0 18.6274 5.37258 24 12 24Z" fill="#FF0420"/>
<path d="M8.50001 15.1879C7.78481 15.1879 7.19921 15.0199 6.74321 14.6839C6.29201 14.3431 6.06641 13.8535 6.06641 13.2247C6.06641 13.0903 6.08081 12.9319 6.10961 12.7399C6.18641 12.3079 6.29681 11.7895 6.44081 11.1799C6.84881 9.52872 7.90481 8.70312 9.60401 8.70312C10.0648 8.70312 10.4824 8.77992 10.8472 8.93832C11.212 9.08712 11.5 9.31752 11.7112 9.62472C11.9224 9.92712 12.028 10.2871 12.028 10.7047C12.028 10.8295 12.0136 10.9879 11.9848 11.1799C11.8936 11.7127 11.788 12.2359 11.6584 12.7399C11.4472 13.5607 11.0872 14.1799 10.5688 14.5879C10.0552 14.9911 9.36401 15.1879 8.50001 15.1879ZM8.62961 13.8919C8.96561 13.8919 9.24881 13.7911 9.48401 13.5943C9.72401 13.3975 9.89681 13.0951 9.99761 12.6823C10.1368 12.1159 10.2424 11.6263 10.3144 11.2039C10.3384 11.0791 10.3528 10.9495 10.3528 10.8151C10.3528 10.2679 10.0696 9.99432 9.49841 9.99432C9.16241 9.99432 8.87441 10.0951 8.63441 10.2919C8.39921 10.4887 8.23121 10.7911 8.13041 11.2039C8.02001 11.6071 7.91441 12.0967 7.80401 12.6823C7.78001 12.8023 7.76561 12.9271 7.76561 13.0615C7.76081 13.6183 8.05361 13.8919 8.62961 13.8919Z" fill="white"/>
<path d="M12.4458 15.1002C12.3786 15.1002 12.3306 15.081 12.2922 15.0378C12.2634 14.9898 12.2538 14.937 12.2634 14.8746L13.5066 9.01857C13.5162 8.95137 13.5498 8.89857 13.6074 8.85537C13.6602 8.81217 13.7178 8.79297 13.7802 8.79297H16.1754C16.8426 8.79297 17.3754 8.93217 17.7786 9.20577C18.1866 9.48417 18.393 9.88257 18.393 10.4058C18.393 10.5546 18.3738 10.713 18.3402 10.8762C18.1914 11.5674 17.889 12.0762 17.4282 12.4074C16.977 12.7386 16.3578 12.9018 15.5706 12.9018H14.3562L13.9434 14.8746C13.929 14.9418 13.9002 14.9946 13.8426 15.0378C13.7898 15.081 13.7322 15.1002 13.6698 15.1002H12.4458ZM15.633 11.6586C15.8874 11.6586 16.1034 11.5914 16.2906 11.4522C16.4826 11.313 16.6074 11.1162 16.6698 10.857C16.689 10.7562 16.6986 10.665 16.6986 10.5882C16.6986 10.4154 16.6458 10.281 16.545 10.1898C16.4442 10.0938 16.2666 10.0458 16.0218 10.0458H14.9418L14.601 11.6586H15.633Z" fill="white"/>
</g>
<defs>
<clipPath id="clip0_1335_4265">
<rect width="24" height="24" rx="2" fill="white"/>
</clipPath>
</defs>
</svg>
