<svg width="57" height="48" viewBox="0 0 57 48" fill="none" xmlns="http://www.w3.org/2000/svg">
<path d="M5.38952 35.9871H1.54718L1.03487 37.644H0L2.26442 30.3948H4.70303L6.96744 37.644H5.90183L5.38952 35.9871ZM5.10263 35.0343L3.9653 31.3476H2.9919L1.84432 35.0343H5.10263Z" fill="#EAEAEA"/>
<path d="M10.6123 34.6408H9.27005V37.644H8.24542V30.3948H11.3808C11.8589 30.3948 12.2688 30.488 12.6103 30.6744C12.9587 30.8539 13.2217 31.1059 13.3993 31.4304C13.5837 31.748 13.6759 32.1105 13.6759 32.5178C13.6759 33.0632 13.5154 33.5292 13.1944 33.9159C12.8733 34.2956 12.4225 34.5269 11.8419 34.6097L14.2292 37.644H12.9382L10.6123 34.6408ZM9.27005 33.6984H11.3193C11.7291 33.6984 12.0434 33.5983 12.262 33.3981C12.4874 33.1909 12.6001 32.8975 12.6001 32.5178C12.6001 32.1381 12.4874 31.8481 12.262 31.6479C12.0434 31.4408 11.7291 31.3372 11.3193 31.3372H9.27005V33.6984Z" fill="#EAEAEA"/>
<path d="M14.7422 34.0194C14.7422 33.329 14.9027 32.7008 15.2238 32.1346C15.5516 31.5616 15.9956 31.1128 16.5558 30.7883C17.1159 30.457 17.7375 30.2913 18.4206 30.2913C18.9466 30.2913 19.4384 30.3948 19.896 30.6019C20.3537 30.8022 20.7465 31.0921 21.0744 31.4718C21.4091 31.8447 21.655 32.2796 21.8121 32.7767H20.6748C20.463 32.3141 20.1624 31.9517 19.7731 31.6893C19.3906 31.4201 18.9397 31.2854 18.4206 31.2854C17.9356 31.2854 17.495 31.4063 17.0988 31.6479C16.7026 31.8895 16.3884 32.2209 16.1562 32.6421C15.9307 33.0563 15.818 33.5154 15.818 34.0194C15.818 34.5234 15.9307 34.986 16.1562 35.4071C16.3884 35.8214 16.7026 36.1493 17.0988 36.3909C17.495 36.6326 17.9356 36.7534 18.4206 36.7534C18.9397 36.7534 19.3906 36.6222 19.7731 36.3599C20.1624 36.0906 20.463 35.7247 20.6748 35.2621H21.8121C21.655 35.7592 21.4091 36.1976 21.0744 36.5773C20.7465 36.9502 20.3537 37.2401 19.896 37.4472C19.4384 37.6475 18.9466 37.7476 18.4206 37.7476C17.7375 37.7476 17.1159 37.5853 16.5558 37.2608C15.9956 36.9295 15.5516 36.4807 15.2238 35.9146C14.9027 35.3415 14.7422 34.7098 14.7422 34.0194Z" fill="#EAEAEA"/>
<path d="M27.6039 35.9871H23.7615L23.2492 37.644H22.2143L24.4788 30.3948H26.9174L29.1818 37.644H28.1162L27.6039 35.9871ZM27.317 35.0343L26.1796 31.3476H25.2062L24.0587 35.0343H27.317Z" fill="#EAEAEA"/>
<path d="M36.6075 37.644H35.5829V31.389H31.4844V37.644H30.4598V30.3948H36.6075V37.644Z" fill="#EAEAEA"/>
<path d="M44.7561 30.3948V37.644H38.6083V30.3948H39.6329V36.6498H43.7314V30.3948H44.7561Z" fill="#EAEAEA"/>
<path d="M56.3884 37.644H55.3637V31.389H52.0849V37.644H51.0603V31.389H47.7815V37.644H46.7569V30.3948H56.3884V37.644Z" fill="#EAEAEA"/>
<path d="M11.3768 45.7027H11.3334C11.3623 46.0158 11.3768 46.2124 11.3768 46.2925V48H10.7184V42.2112H11.2502L11.3479 42.75H11.3768C11.6421 42.3422 12.0303 42.1384 12.5416 42.1384C13.0263 42.1384 13.4061 42.3204 13.681 42.6845C13.9583 43.0461 14.097 43.5522 14.097 44.2027C14.097 44.858 13.9583 45.3689 13.681 45.7354C13.4037 46.0995 13.0239 46.2816 12.5416 46.2816C12.0424 46.2816 11.6541 46.0886 11.3768 45.7027ZM11.3768 44.0534V44.2027C11.3768 44.7536 11.46 45.1468 11.6264 45.3823C11.7952 45.6153 12.0629 45.7318 12.4294 45.7318C13.0854 45.7318 13.4133 45.2197 13.4133 44.1954C13.4133 43.1905 13.0829 42.6881 12.4222 42.6881C12.0556 42.6881 11.7916 42.7949 11.63 43.0085C11.4708 43.2221 11.3864 43.5704 11.3768 44.0534Z" fill="#EAEAEA"/>
<path d="M18.5009 42.3022L18.3237 42.9066C18.0271 42.7973 17.757 42.7427 17.5134 42.7427C17.1204 42.7427 16.8165 42.8556 16.6019 43.0813C16.3897 43.3046 16.2836 43.6286 16.2836 44.0534V46.2087H15.6252V42.2112H16.1606L16.2402 42.943H16.2691C16.4524 42.6541 16.6489 42.4478 16.8587 42.324C17.0685 42.2002 17.3265 42.1384 17.6328 42.1384C17.9174 42.1384 18.2067 42.193 18.5009 42.3022Z" fill="#EAEAEA"/>
<path d="M21.4001 46.2816C20.8792 46.2816 20.45 46.0934 20.1124 45.7172C19.7772 45.3386 19.6096 44.8337 19.6096 44.2027C19.6096 43.5643 19.7724 43.0607 20.0979 42.6917C20.4259 42.3228 20.8672 42.1384 21.4218 42.1384C21.9475 42.1384 22.378 42.3265 22.7132 42.7027C23.0484 43.0789 23.216 43.5789 23.216 44.2027C23.216 44.8459 23.0508 45.3532 22.7204 45.7245C22.3901 46.0959 21.95 46.2816 21.4001 46.2816ZM21.4146 45.7318C22.1622 45.7318 22.536 45.2221 22.536 44.2027C22.536 43.193 22.1598 42.6881 21.4074 42.6881C20.6622 42.6881 20.2896 43.193 20.2896 44.2027C20.2896 45.2221 20.6646 45.7318 21.4146 45.7318Z" fill="#EAEAEA"/>
<path d="M27.4065 45.6626V46.1651C27.0931 46.2427 26.7892 46.2816 26.495 46.2816C25.622 46.2816 25.1855 45.8641 25.1855 45.0291V42.71H24.2197V42.3677L25.1855 42.1893L25.4641 41.1444H25.8439V42.2112H27.4283V42.71H25.8439V45.0291C25.8439 45.5024 26.0754 45.7391 26.5384 45.7391C26.7627 45.7391 27.0521 45.7136 27.4065 45.6626Z" fill="#EAEAEA"/>
<path d="M30.4468 46.2816C29.9259 46.2816 29.4967 46.0934 29.159 45.7172C28.8238 45.3386 28.6562 44.8337 28.6562 44.2027C28.6562 43.5643 28.819 43.0607 29.1446 42.6917C29.4725 42.3228 29.9139 42.1384 30.4685 42.1384C30.9942 42.1384 31.4247 42.3265 31.7599 42.7027C32.0951 43.0789 32.2627 43.5789 32.2627 44.2027C32.2627 44.8459 32.0975 45.3532 31.7671 45.7245C31.4367 46.0959 30.9966 46.2816 30.4468 46.2816ZM30.4613 45.7318C31.2088 45.7318 31.5826 45.2221 31.5826 44.2027C31.5826 43.193 31.2064 42.6881 30.454 42.6881C29.7089 42.6881 29.3363 43.193 29.3363 44.2027C29.3363 45.2221 29.7113 45.7318 30.4613 45.7318Z" fill="#EAEAEA"/>
<path d="M36.6015 42.3532L36.3773 42.9284C36.0155 42.7901 35.6924 42.7209 35.4078 42.7209C34.5132 42.7209 34.0658 43.2221 34.0658 44.2245C34.0658 45.21 34.5011 45.7027 35.3717 45.7027C35.7503 45.7027 36.1373 45.6274 36.5328 45.4769V46.0595C36.2097 46.2075 35.813 46.2816 35.3427 46.2816C34.723 46.2816 34.2419 46.1056 33.8994 45.7536C33.557 45.3993 33.3858 44.892 33.3858 44.2318C33.3858 43.5498 33.5606 43.0303 33.9103 42.6735C34.2599 42.3167 34.7519 42.1384 35.3861 42.1384C35.8154 42.1384 36.2205 42.21 36.6015 42.3532Z" fill="#EAEAEA"/>
<path d="M39.4935 46.2816C38.9726 46.2816 38.5433 46.0934 38.2057 45.7172C37.8705 45.3386 37.7029 44.8337 37.7029 44.2027C37.7029 43.5643 37.8657 43.0607 38.1912 42.6917C38.5192 42.3228 38.9605 42.1384 39.5152 42.1384C40.0409 42.1384 40.4713 42.3265 40.8065 42.7027C41.1417 43.0789 41.3093 43.5789 41.3093 44.2027C41.3093 44.8459 41.1442 45.3532 40.8138 45.7245C40.4834 46.0959 40.0433 46.2816 39.4935 46.2816ZM39.5079 45.7318C40.2555 45.7318 40.6293 45.2221 40.6293 44.2027C40.6293 43.193 40.2531 42.6881 39.5007 42.6881C38.7555 42.6881 38.383 43.193 38.383 44.2027C38.383 45.2221 38.758 45.7318 39.5079 45.7318Z" fill="#EAEAEA"/>
<path d="M43.7347 41.0643L42.7652 40.9879V40.5437H44.3966V45.6881L45.6699 45.7609V46.2087H42.4903V45.7609L43.7347 45.6881V41.0643Z" fill="#EAEAEA"/>
<path fill-rule="evenodd" clip-rule="evenodd" d="M28.1942 22.3689C36.8233 22.3689 44.3108 16.9078 48.0386 13.6177C49.5405 12.2921 49.5405 10.0769 48.0386 8.75125C44.3108 5.46115 36.8233 0 28.1942 0C19.5651 0 12.0777 5.46115 8.34979 8.75127C6.8478 10.0769 6.84781 12.2921 8.34979 13.6177C12.0777 16.9078 19.5651 22.3689 28.1942 22.3689ZM28.1942 18.9876C32.5527 18.9876 36.0859 15.494 36.0859 11.1844C36.0859 6.87491 32.5527 3.38133 28.1942 3.38133C23.8357 3.38133 20.3025 6.87491 20.3025 11.1844C20.3025 15.494 23.8357 18.9876 28.1942 18.9876Z" fill="#EAEAEA"/>
</svg>
