<svg width="45" height="24" viewBox="0 0 45 24" fill="none" xmlns="http://www.w3.org/2000/svg">
<path fill-rule="evenodd" clip-rule="evenodd" d="M22.5 24C31.7583 24 39.7918 18.1407 43.7914 14.6106C45.4029 13.1884 45.4029 10.8116 43.7914 9.38936C39.7918 5.85936 31.7583 0 22.5 0C13.2417 0 5.20832 5.85936 1.20863 9.38938C-0.402877 10.8116 -0.402874 13.1884 1.20863 14.6106C5.20832 18.1407 13.2417 24 22.5 24ZM22.5 20.3721C27.1764 20.3721 30.9672 16.6238 30.9672 12C30.9672 7.3762 27.1764 3.62789 22.5 3.62789C17.8238 3.62789 14.0329 7.3762 14.0329 12C14.0329 16.6238 17.8238 20.3721 22.5 20.3721Z" fill="#E9E9E9"/>
</svg>
